<svg width="32" height="32" viewBox="0 0 32 32" fill="none" xmlns="http://www.w3.org/2000/svg">
<style>
  .icon { fill: #1a1a1a; }
  @media (prefers-color-scheme: dark) {
    .icon { fill: #e8e8e8; }
  }
</style>
<path class="icon" fill-rule="evenodd" clip-rule="evenodd" d="M4 6.00007C4 4.8955 4.89543 4.00007 6 4.00007H10C11.1046 4.00007 12 4.8955 12 6.00007V26.0001C12 27.1046 11.1046 28.0001 10 28.0001H6C4.89543 28.0001 4 27.1046 4 26.0001V6.00007ZM10 6.00007H6V26.0001H10V6.00007Z"/>
<path class="icon" fill-rule="evenodd" clip-rule="evenodd" d="M4 10.0001C4 9.44779 4.44772 9.00007 5 9.00007H11C11.5523 9.00007 12 9.44779 12 10.0001C12 10.5524 11.5523 11.0001 11 11.0001H5C4.44772 11.0001 4 10.5524 4 10.0001Z"/>
<path class="icon" fill-rule="evenodd" clip-rule="evenodd" d="M10 6.00007C10 4.8955 10.8954 4.00007 12 4.00007H16C17.1046 4.00007 18 4.8955 18 6.00007V26.0001C18 27.1046 17.1046 28.0001 16 28.0001H12C10.8954 28.0001 10 27.1046 10 26.0001V6.00007ZM16 6.00007H12V26.0001H16V6.00007Z"/>
<path class="icon" fill-rule="evenodd" clip-rule="evenodd" d="M10 22.0001C10 21.4478 10.4477 21.0001 11 21.0001H17C17.5523 21.0001 18 21.4478 18 22.0001C18 22.5524 17.5523 23.0001 17 23.0001H11C10.4477 23.0001 10 22.5524 10 22.0001Z"/>
<path class="icon" fill-rule="evenodd" clip-rule="evenodd" d="M16.3821 7.20277C16.0949 6.13134 16.7306 5.02996 17.8021 4.74277L21.6821 3.70277C22.7535 3.41558 23.8549 4.05134 24.1421 5.12277L29.3421 24.5228C29.6292 25.5942 28.9935 26.6956 27.9221 26.9828L24.0421 28.0228C22.9706 28.31 21.8692 27.6742 21.5821 26.6028L16.3821 7.20277ZM22.2021 5.64277L18.3221 6.68277L23.5221 26.0828L27.4021 25.0428L22.2021 5.64277Z"/>
<path class="icon" fill-rule="evenodd" clip-rule="evenodd" d="M28.1655 20.5774C28.3091 21.1106 27.9933 21.6594 27.46 21.8031L21.66 23.3656C21.1268 23.5092 20.578 23.1934 20.4343 22.6601C20.2907 22.1268 20.6065 21.5781 21.1398 21.4344L26.9398 19.8719C27.4731 19.7282 28.0218 20.0441 28.1655 20.5774Z"/>
<path class="icon" fill-rule="evenodd" clip-rule="evenodd" d="M25.0661 8.9919C25.2087 9.52546 24.8918 10.0736 24.3582 10.2162L18.5582 11.7662C18.0247 11.9088 17.4765 11.5918 17.334 11.0583C17.1914 10.5247 17.5083 9.97657 18.0419 9.83398L23.8419 8.28398C24.3754 8.14139 24.9236 8.45834 25.0661 8.9919Z"/>
</svg>
