<svg width="660" height="568" viewBox="0 0 660 568" fill="none" xmlns="http://www.w3.org/2000/svg">
<path d="M44.2072 142.738C43.8918 141.646 44.9038 142.146 45.2348 141.978C47.3761 140.895 49.6016 139.849 51.8433 139.136C54.1901 138.389 53.598 137.268 53.2785 135.715C51.9186 129.044 50.8944 122.298 48.5896 115.849C48.2911 115.009 47.876 114.204 47.4351 113.431C46.8471 112.402 46.3438 111.697 45.1893 113.133C44.4419 114.065 42.9008 113.666 41.7301 113.964C35.6507 115.505 29.6899 117.226 24.341 120.735C22.5401 121.92 22.2003 123.376 22.6914 124.938C24.4671 130.614 25.3401 136.626 28.724 141.722C28.9886 142.121 28.8794 142.507 28.8956 142.919C28.9587 144.292 29.753 144.745 31.0709 144.72C33.8037 144.665 36.5114 144.338 39.1309 143.649C40.3023 143.339 40.5838 143.544 40.7853 144.602C40.8863 145.118 41.2221 145.651 41.591 146.042C42.3175 146.81 42.0028 147.293 41.3855 147.927C39.5298 149.824 38.338 151.924 39.9204 154.589C40.189 155.043 39.8825 155.32 39.6179 155.391C34.853 156.663 32.7334 160.648 30.3444 164.367C30.2393 164.531 30.0216 164.623 29.7231 164.85C28.7912 162.453 28.5599 159.967 28.0729 157.553C25.8522 146.558 23.2998 135.647 20.2855 124.833C17.9095 116.294 15.7363 107.692 14.1287 98.9639C13.7896 97.1251 13.1656 95.3412 12.7043 93.5275C12.4127 92.39 11.5784 91.886 10.5542 91.9532C9.59781 92.0203 9.39432 92.9231 9.15014 93.7622C8.16663 97.18 8.91953 100.593 9.37398 103.93C11.6055 120.333 16.1772 136.256 19.5849 152.419C21.3979 161.008 23.0102 169.644 24.6726 178.267C24.8158 178.997 25.1685 180.017 23.9211 180.257C21.52 180.719 21.8686 182.511 22.3468 183.981C22.8677 185.58 23.0692 187.373 24.2657 188.695C24.7276 189.207 24.3579 189.401 24.0853 189.682C19.0348 194.929 17.5201 201.277 17.8321 208.389C18.4046 221.193 19.8243 233.897 21.8184 246.541C23.6525 258.158 26.7421 269.442 30.5378 280.567C32.7544 287.062 34.5634 293.695 36.8512 300.176C38.5096 304.874 41.3435 308.569 45.2857 311.487C45.8819 311.928 46.5703 312.268 47.4101 312.116C49.7481 311.692 51.0287 312.276 51.9186 314.43C52.6321 316.164 54.1271 316.486 55.5922 316.63C57.9804 316.856 59.7568 318.036 60.2649 320.265C63.8123 335.903 67.4729 351.516 70.823 367.196C73.4086 379.295 75.7473 391.449 77.909 403.627C79.3368 411.679 80.2857 419.815 81.394 427.926C82.2466 434.169 83.7782 440.26 85.2691 446.369C85.8646 448.816 84.4456 451.214 84.664 453.728C84.8234 455.588 84.5467 457.494 85.2053 459.299C85.4407 459.941 85.6842 460.777 86.1922 461.088C88.497 462.49 89.8319 465.319 92.8292 465.663C94.2821 465.831 93.8711 466.927 93.9084 467.72C94.0935 471.545 94.1478 475.373 95.6007 479.022C95.9493 479.895 96.4648 480.592 96.9606 481.344C98.1022 483.086 97.6871 483.908 95.6468 484.295C93.7612 484.652 91.8891 485.118 90.0421 485.647C89.3455 485.844 88.5011 486.201 88.5933 487.166C88.6693 487.977 89.3788 488.245 90.0801 488.418C92.0363 488.896 93.9714 489.375 96.0375 489.337C100.928 489.248 105.823 489.396 110.714 489.286C115.722 489.173 120.709 488.678 125.676 488.006C126.083 487.952 126.469 487.762 126.868 487.632C127.779 487.33 128.644 486.776 128.678 485.831C128.703 485.059 127.771 484.685 127.099 484.328C124.668 483.031 121.977 482.616 119.311 482.217C118.262 482.057 118.203 481.658 118.443 480.861C119.455 477.494 119.735 474.039 119.614 470.55C119.567 469.295 120.063 468.997 121.204 469.148C131.742 470.537 142.275 471.99 152.829 473.241C160.285 474.123 167.771 474.769 175.251 475.42C186.763 476.415 198.278 477.355 209.798 478.258C216.46 478.778 223.136 479.19 229.807 479.631C236.121 480.046 242.439 480.449 248.757 480.827C249.584 480.878 249.962 481.142 250.164 481.998C251.893 489.337 252.662 496.834 253.959 504.245C254.29 506.147 254.773 508.04 255.378 509.874C255.759 511.041 255.365 511.2 254.379 511.154C251.935 511.045 249.542 511.428 247.183 512.007C246.465 512.183 245.403 512.339 245.424 513.165C245.449 514.08 246.519 514.505 247.321 514.454C249.366 514.324 251.33 514.971 253.35 514.924C256.322 514.862 259.076 515.634 261.889 516.591C265.159 517.708 268.652 518.145 272.15 517.548C277.947 516.557 283.744 515.541 289.529 514.479C290.818 514.245 292.099 513.838 293.212 513.107C294.458 512.288 294.449 511.428 292.997 510.907C290.205 509.903 287.313 509.585 284.382 510.101C283.195 510.31 281.667 510.76 280.957 510.105C280.222 509.425 281.373 508.14 281.734 507.154C283.615 502.003 284.408 496.608 285.424 491.264C286.046 487.994 286.923 484.685 286.557 481.394C286.326 479.32 287.065 478.905 288.652 478.795C291.855 478.581 294.156 476.545 296.633 474.882C297.237 474.475 297.766 474.136 298.527 474.211C306.801 475.047 315.012 474.723 323.249 473.451C330.546 472.326 337.867 471.26 345.264 470.802C351.57 470.407 357.871 469.849 364.151 469.143C376.969 467.699 389.819 467.091 402.716 467.007C408.644 466.969 414.571 466.545 420.491 466.201C422.342 466.092 424.168 465.655 426.011 465.399C426.448 465.34 426.93 465.327 426.968 464.811C427.006 464.337 426.565 464.043 426.158 463.976C424.718 463.741 423.274 463.438 421.826 463.409C414.437 463.241 407.044 462.951 399.663 463.082C388.215 463.283 376.792 463.963 365.407 465.332C355.079 466.575 344.701 467.36 334.349 468.401C327.825 469.06 321.377 470.403 314.803 470.659C310.831 470.815 306.864 471.205 302.884 470.836C301.939 470.748 300.994 470.588 299.941 471.377C303.648 463.514 303.425 455.395 303.467 447.322C303.509 439.232 303.941 431.109 303.35 423.061C302.25 408.061 302.052 393.056 302.267 378.044C302.372 370.806 303.026 363.582 303.82 356.373C304.495 350.227 305.075 344.064 305.55 337.897C305.852 334.001 305.739 334.165 309.643 333.943C313.211 333.737 316.293 335.571 319.744 335.865C324.571 336.277 329.361 337.171 334.177 337.755C340.097 338.472 346.028 339.115 351.96 339.728C355.629 340.11 359.316 340.353 362.989 340.714C367.955 341.205 372.913 341.789 377.884 342.271C383.013 342.767 388.152 343.224 393.291 343.632C400.23 344.186 407.166 344.744 414.113 345.172C417.249 345.366 420.402 345.294 423.551 345.286C424.865 345.286 426.028 344.451 426.103 343.313C426.175 342.25 424.861 341.768 423.79 341.571C418.665 340.63 413.472 340.328 408.291 339.891C406.696 339.757 405.159 339.178 403.467 339.304C413.064 336.714 420.167 330.072 427.904 324.283C429.139 333.04 430.268 341.554 431.549 350.042C432.879 358.884 433.291 367.767 433.265 376.692C433.215 394.627 433.324 412.561 433.11 430.492C433.043 436.117 431.948 441.721 431.691 447.351C431.355 454.706 430.843 462.095 432.262 469.421C432.418 470.231 432.354 471.092 432.354 471.927C432.359 474.903 434.34 477.359 437.271 477.561C438.513 477.645 438.27 478.283 438.207 478.884C437.317 487.456 436.36 496.02 435.612 504.605C435.411 506.927 435.633 509.341 434.638 511.629C434.147 511.083 433.4 510.264 432.59 510.953C431.562 511.826 430.609 512.968 430.717 514.442C430.978 517.905 431.317 521.364 431.721 524.816C432.321 529.971 433.001 535.113 433.656 540.34C432.699 540.227 432.506 539.362 431.67 539.034C431.507 539.387 431.087 539.853 431.183 540.156C431.8 542.103 430.499 542.574 429.131 543.186C427.363 543.976 425.675 544.95 423.941 545.819C423.274 546.15 422.711 546.578 422.753 547.368C422.8 548.233 423.48 548.363 424.214 548.555C425.31 548.841 426.398 548.942 427.518 548.942C428.862 548.942 430.042 549.026 431.288 550.016C432.74 551.176 434.916 550.919 436.733 550.948C444.273 551.07 451.775 552.066 459.286 552.15C468.971 552.254 478.269 554.614 487.661 556.284C493.912 557.397 500.016 559.521 506.279 560.794C512.308 562.019 518.366 562.871 524.29 560.277C528.606 558.388 531.935 555.474 533.455 550.865C533.643 550.298 533.954 549.958 534.403 549.933C536.96 549.799 537.136 547.842 537.229 546.062C537.35 543.715 536.649 541.562 535.054 539.715C531.876 536.029 527.841 533.623 523.32 532.12C512.757 528.619 504.592 521.767 497.023 513.946C493.429 510.235 489.907 506.436 485.885 503.148C484.16 501.738 482.535 500.667 480.066 501.272C478.706 501.604 477.565 499.921 476.062 499.904C473.878 499.878 474.382 498.077 474.072 496.864C473.316 493.896 473.353 490.688 470.701 487.758C474.945 488.875 478.643 488.456 482.308 488.615C487.132 488.825 491.964 488.573 496.679 487.271C497.628 487.011 498.656 486.604 498.509 485.693C498.357 484.74 497.896 483.724 496.447 483.451C493.026 482.813 493.186 482.725 493.853 479.223C494.307 476.847 494.529 474.412 494.499 471.961C494.466 468.682 494.302 465.391 494.815 462.125C494.991 461.003 494.609 459.929 494.294 458.573C486.683 462.763 479.218 467.082 471.234 470.353C472.573 468.838 474.445 468.22 476.099 467.242C482.8 463.279 489.302 458.976 496.288 455.5C497.459 454.916 498.052 453.85 498.819 452.842C501.611 449.165 502.119 445.302 500.801 440.911C499.214 435.625 498.14 430.189 496.154 425.021C495.713 423.871 495.377 422.641 494.084 422.07C493.391 421.763 493.681 421.109 493.643 420.592C493.051 412.502 493.131 404.396 493.249 396.297C493.358 388.808 493.068 381.331 492.737 373.862C492.287 363.778 491.427 353.711 490.78 343.636C490.44 338.35 490.137 333.057 489.89 327.767C489.537 320.177 488.857 312.616 488.282 305.042C487.871 299.618 487.46 294.191 486.871 288.783C486.515 285.488 486.154 282.154 485.016 278.98C484.823 278.443 485.184 277.708 485.385 276.453C485.902 278.498 486.33 279.921 486.612 281.373C487.438 285.66 490.348 288.699 492.942 291.898C496.771 296.625 501.406 300.546 505.952 304.543C506.809 305.294 507.38 306.016 506.859 307.238C506.65 307.729 506.662 308.333 506.662 308.888C506.662 317.834 506.368 326.793 507.107 335.714C508.732 355.29 509.03 374.904 508.652 394.513C508.458 404.509 508.165 414.501 508.518 424.48C508.71 429.996 508.496 435.504 508.719 441.012C508.794 442.914 508.278 444.723 507.09 446.281C506.671 446.831 506.221 447.368 505.864 447.956C505.298 448.888 504.634 450.135 505.368 450.94C506.208 451.86 507.254 450.823 508.093 450.29C510.835 448.543 512.069 446.138 512.111 442.767C512.262 430.89 511.179 419.048 511.208 407.179C511.237 394.404 511.292 381.629 510.872 368.859C510.436 355.559 509.957 342.259 509.352 328.968C509.059 322.515 509.235 316.046 509.227 309.581C509.227 309.132 508.992 308.515 509.521 308.233C510.108 307.918 510.36 308.557 510.683 308.858C518.064 315.765 525.814 322.28 532.791 329.623C533.63 330.505 534.059 331.348 533.958 332.561C533.862 333.745 533.941 334.938 533.937 336.13C533.929 339.61 535.419 342.125 538.303 344.186C540.541 345.786 543.014 347.167 544.743 349.509C545.411 350.416 546.83 350.714 548.139 349.966C551.38 348.12 553.475 345.387 555.025 342.016C557.505 336.612 558.95 330.89 560.616 325.005C563.677 327.314 567.044 328.775 570.217 330.58C571.359 331.23 572.317 332.297 571.632 334.085C570.167 337.922 570.742 339.513 573.97 341.965C577.585 344.71 581.611 346.751 585.688 348.67C587.228 349.396 588.53 350.643 590.02 351.193C597.501 353.943 603.576 351.529 607.425 343.938C608.807 341.218 610.029 338.455 610.805 335.504C611.091 334.413 611.653 333.707 612.841 333.187C619.961 330.051 625.335 324.698 630.394 318.985C640.209 307.905 645.142 294.438 649.449 280.596C651.691 273.401 652.715 266.205 651.582 258.75C650.557 252.003 643.563 245.483 636.867 245.072C634.504 244.925 633.068 246.587 631.813 248.288C630.327 250.303 629.344 252.604 628.282 254.858C624.713 262.461 618.827 267.998 612.262 272.973C606.942 277.007 601.057 280.177 595.671 284.094C593.929 285.361 591.594 286.587 592.665 289.572C592.917 290.278 592.279 290.358 591.771 290.274C587.048 289.505 582.287 289.971 577.552 289.975C573.903 289.975 570.352 289.266 566.745 289.018C565.599 288.939 564.768 288.611 565.284 286.919C565.927 284.816 564.495 282.393 562.43 281.092C559.445 279.215 556.241 277.763 553.077 276.243C552.174 275.811 551.376 275.323 550.705 274.598C543.097 266.361 534.055 259.799 525.377 252.809C516.569 245.714 508.194 238.15 500.184 230.156C490.641 220.63 481.082 211.1 470.478 202.717C470.041 202.373 469.604 202.028 468.874 201.449C470.977 200.991 472.296 199.95 473.782 199.241C475.893 198.233 476.838 196.327 477.132 194.27C477.413 192.326 475.839 192.293 474.269 192.583C476.179 191.882 478.005 191.374 479.726 190.538C482.342 189.266 483.047 187.356 481.405 185.001C480.171 183.229 478.614 181.739 476.2 181.651C474.517 181.592 474.466 182.532 474.966 183.674C475.347 184.556 475.889 185.391 476.461 186.168C477.715 187.877 477.132 188.909 475.36 189.656C473.757 190.333 472.829 191.516 472.119 193.192C471.238 195.282 470.478 197.629 467.804 198.477C466.553 198.876 465.839 198.724 464.882 197.885C458.551 192.331 452.069 186.957 445.192 182.083C441.67 179.585 437.967 177.386 433.967 175.781C431.498 174.795 428.807 174.963 426.179 175.097C419.466 175.438 413.799 178.431 408.497 182.238C397.711 189.984 386.863 197.645 376.25 205.618C369.021 211.05 362.145 216.944 355.121 222.645C346.515 229.627 337.925 236.625 329.323 243.611C323.198 248.586 317.292 253.8 311.877 259.551C311.137 260.336 310.331 261.008 309.064 261.134C307.267 261.314 305.994 262.654 304.74 263.837C304.169 264.375 303.871 264.602 303.287 263.871C298.165 257.503 290.986 254.85 283.408 252.931C283.295 252.902 283.207 252.775 282.896 252.52C285.034 251.554 286.977 250.244 289.101 249.795C293.774 248.813 297.998 246.835 302.082 244.547C305.281 242.754 308.799 243.111 312.17 242.495C314.702 242.029 317.128 241.344 319.336 239.975C319.806 239.686 320.318 239.48 320.382 238.687C314.941 239.874 309.408 239.304 303.984 240.097C298.627 240.882 293.984 243.598 289.081 245.622C284.932 247.339 280.73 248.93 276.57 250.614C275.814 250.92 275.054 250.962 274.311 250.819C264.366 248.871 254.303 249.043 244.256 249.32C234.92 249.577 225.587 250.055 216.264 250.563C206.511 251.092 196.759 251.483 186.999 251.818C174.794 252.242 162.586 252.717 150.394 253.477C142.922 253.943 135.487 254.976 128.082 256.214C123.3 257.011 118.51 257.784 113.745 258.661C113.35 258.733 113.102 258.674 112.792 258.51C109.87 256.961 106.935 255.433 104.03 253.863C103.275 253.452 102.439 253.174 102.255 252.024C102.133 251.273 98.7072 250.483 98.0771 250.953C97.4646 251.411 97.5948 252.2 97.8424 252.675C98.8035 254.531 98.8245 256.457 98.8917 258.493C98.9548 260.395 99.6935 262.301 100.302 264.148C100.735 265.463 102.116 265.408 102.972 265.026C105.906 263.724 109.026 264.303 112.032 263.972C117.955 263.317 123.837 262.393 129.735 261.579C135.848 260.735 141.956 259.895 148.09 259.233C154.803 258.506 161.545 258.267 168.266 257.687C171.747 257.389 175.243 257.456 178.724 257.285C183.321 257.057 187.93 256.827 192.535 256.684C205.231 256.29 217.926 255.815 230.617 255.341C239.219 255.022 247.817 254.921 256.398 255.16C266.112 255.433 275.696 256.944 284.827 260.538C289.034 262.192 293.165 264.052 296.645 266.995C300.109 269.925 301.746 274.073 303.438 278.12C304.924 281.667 305.235 285.509 305.965 289.245C306.188 290.379 305.155 291.18 305.164 292.222C305.21 297.691 303.266 302.83 302.56 308.174C302.161 311.201 301.662 314.224 301.402 317.268C300.633 326.352 300.067 335.454 299.218 344.53C298.388 353.401 297.64 362.267 297.133 371.164C296.288 385.899 296.758 400.638 296.876 415.374C296.939 423.224 297.875 431.067 297.447 438.934C296.96 447.905 297.091 456.911 295.91 465.84C295.55 468.573 295.004 471.277 294.034 473.854C290.949 472.259 287.682 472.872 284.551 473.086C277.796 473.552 271.041 473.85 264.269 473.837C262.829 473.837 262.926 472.805 262.833 472.028C262.661 470.583 262.607 469.131 262.355 467.682C262.217 466.894 261.792 466.805 261.255 466.75C260.47 466.671 260.655 467.339 260.558 467.767C260.327 468.783 260.058 469.79 259.903 470.819C259.446 473.82 259.458 473.912 256.368 473.778C247.59 473.4 238.804 473.12 230.046 472.464C222.897 471.927 215.752 471.335 208.602 470.815C200.819 470.252 193.035 469.702 185.256 469.118C174.576 468.317 163.921 467.217 153.258 466.197C149.807 465.865 146.377 465.353 142.926 464.992C142.032 464.899 141.755 464.589 141.763 463.695C141.805 457.922 140.671 452.25 140.201 446.524C139.744 440.957 139.606 435.37 139.74 429.778C139.853 425.038 139.74 420.319 138.917 415.626C138.476 413.123 137.603 412.162 134.689 412.099C127.191 411.932 119.79 410.794 112.364 409.942C104.958 409.094 97.5779 408.023 90.1887 407.058C89.7776 407.003 89.3449 407.003 88.9297 407.041C88.0229 407.129 86.6168 406.592 86.4696 407.897C86.3435 409.031 87.8045 409.182 88.6401 409.446C92.6115 410.684 96.7633 411.054 100.861 411.616C105.722 412.288 110.604 412.851 115.495 413.237C121.532 413.716 127.565 414.5 133.644 414.156C135.009 414.081 135.512 414.304 135.596 415.878C136.049 424.555 136.423 433.245 137.318 441.881C137.884 447.36 139.303 452.754 140.356 458.182C140.659 459.744 140.966 461.31 141.343 462.855C141.671 464.186 141.444 464.794 139.869 464.602C135.663 464.081 131.44 463.699 127.229 463.208C121.721 462.565 116.213 461.923 110.718 461.18C104.807 460.382 98.8876 459.589 93.0144 458.568C88.8416 457.843 87.8594 455.949 88.6401 451.571C89.0179 449.463 89.1393 447.305 89.3537 445.168C89.4459 444.24 89.3788 443.367 88.438 442.788C87.485 442.2 87.7374 441.163 87.7502 440.311C87.8635 431.562 86.8224 422.893 85.8904 414.228C84.7482 403.602 82.674 393.111 80.5293 382.645C77.9809 370.211 75.4869 357.767 72.8504 345.353C71.1086 337.15 69.2365 328.968 67.2464 320.819C66.7805 318.905 67.435 318.271 69.0262 317.746C71.4864 316.931 73.9635 315.995 75.2732 313.531C76.3313 311.541 77.3006 309.447 76.8977 307.091C76.7173 306.038 77.4648 305.656 78.044 305.357C80.6636 304.018 80.8819 301.705 80.5123 299.274C79.853 294.916 79.2405 290.546 78.1444 286.26C77.9768 285.597 77.4478 284.341 78.4428 284.136C79.4799 283.921 80.8019 284.556 80.9152 285.815C81.5575 292.864 84.232 299.43 85.6211 306.302C86.7084 311.671 87.3426 317.158 89.3578 322.318C89.6562 323.086 89.9038 323.892 90.3399 324.58C90.6804 325.114 90.6214 326.264 91.8348 325.832C92.8251 325.479 93.2911 324.829 93.1405 323.766C92.855 321.784 92.6535 319.79 92.2798 317.83C91.3099 312.755 91.0162 307.57 89.7858 302.532C88.2874 296.377 86.0661 290.454 83.8243 284.552C83.1026 282.65 81.1377 282.201 79.2527 282.368C77.7958 282.498 77.2335 282.041 76.9438 280.609C76.138 276.625 75.126 272.683 74.2904 268.708C74.1228 267.914 73.8332 267.074 74.9287 266.289C76.3354 265.286 75.4496 263.544 75.4035 262.163C75.3655 261.084 74.114 261.042 73.2533 260.97C72.4814 260.907 72.2881 260.652 72.1029 259.883C71.1669 255.937 70.1135 252.016 69.0642 248.095C68.9761 247.767 68.6444 247.347 69.0093 247.188C70.8061 246.403 70.7138 245.009 70.8359 243.313C70.9614 241.516 70.1929 241.42 69.0764 241.705C67.6025 242.079 67.2037 241.676 66.9771 240.198C66.6916 238.321 65.9238 236.52 65.4456 234.665C65.122 233.414 64.0049 232.02 66.033 231.055C66.5241 230.819 66.3138 225.601 65.9238 225.173C65.3567 224.551 64.6011 224.85 63.9425 224.862C62.8634 224.879 62.3635 224.673 61.9016 223.431C58.3419 213.851 54.5971 204.333 49.0895 195.647C46.6836 191.86 43.9298 188.376 39.6179 186.596C38.707 186.218 38.6907 185.551 38.6107 184.87C38.3129 182.394 37.5905 180.055 36.352 177.902C36.0373 177.356 36.0834 176.848 36.0495 176.306C35.903 173.93 36.3018 171.617 36.8939 169.329C37.3769 167.461 40.4197 165.001 42.3256 164.757C43.6564 164.585 43.3335 166.416 44.6983 166.357C45.0252 165.845 44.8115 165.156 44.8407 164.518C44.8577 164.157 44.505 163.645 45.2145 163.569C45.5461 163.532 45.8188 163.527 46.1254 163.842C46.885 164.627 50.1178 164.694 51.1087 163.838C52.196 162.893 52.9177 161.676 52.0359 160.173C51.226 158.792 51.5496 157.314 51.5706 155.849C51.6127 152.709 48.5014 150.035 45.4539 150.622C44.3286 150.836 43.8287 151.655 44.0261 152.801C44.2777 154.253 43.3376 154.505 42.2422 154.736C40.7724 155.051 41.1258 153.787 40.8823 153.162C40.3654 151.839 40.4787 150.366 41.566 149.501C43.2705 148.146 43.1029 146.785 42.4226 145.001C41.6589 142.986 42.0991 142.566 44.2153 142.759L44.2072 142.738ZM447.25 481.944C444.68 481.281 443.794 479.828 444.009 477.028C444.353 472.527 444.076 472.393 448.572 471.256C456.619 469.223 464.449 466.625 471.918 462.96C473.555 462.158 475.301 461.583 476.998 460.907C476.863 461.562 476.565 461.843 476.221 462.049C475.508 462.477 474.793 462.913 474.042 463.27C469.608 465.382 464.932 467.288 466.033 473.669C466.112 474.14 466.003 474.643 465.978 475.13C465.537 483.564 467.296 491.696 469.453 499.761C469.701 500.684 469.684 501.091 468.854 501.591C463.513 504.803 458.698 508.678 454.42 513.211C453.379 514.316 452.291 514.546 450.701 514.299C448.182 513.909 445.574 514.06 443.001 514.026C442.275 514.018 441.608 514.185 441.616 515.185C441.62 516.012 441.93 516.394 442.765 516.629C445.217 517.317 447.695 517.863 450.18 518.417C452.405 518.912 454.378 518.795 456.301 517.435C459.588 515.113 462.938 512.876 466.288 510.647C469.567 508.463 472.648 505.928 476.49 504.698C479.075 503.867 480.448 504.308 482.052 506.364C483.081 507.683 484.214 508.925 485.335 510.164C488.752 513.934 492.191 517.691 495.65 521.491C493.837 522.267 492.031 522.96 490.293 523.799C486.691 525.541 483.416 527.775 480.541 530.571C480.205 530.898 479.764 531.347 480.008 531.834C480.209 532.233 480.654 532.087 481.09 531.893C485.637 529.874 490.394 528.266 494.672 525.714C497.061 524.286 498.605 523.787 501.116 526.003C506.192 530.483 512.514 533.019 518.782 535.483C523.676 537.406 528.307 539.681 531.498 544.143C533.118 546.407 533.093 547.003 531.422 549.135C527.056 554.706 521.376 556.398 514.571 555.201C508.223 554.085 502.081 552.212 495.931 550.34C487.464 547.763 479.013 545.121 470.264 543.631C468.329 543.304 465.583 542.666 464.605 543.753C463.026 545.512 461.712 544.92 460.113 544.748C452.715 543.963 445.31 543.278 437.938 542.246C436.679 542.07 436.511 541.575 436.632 540.453C436.952 537.477 437.392 534.48 437.317 531.503C437.195 526.578 436.754 521.658 435.814 516.797C435.599 515.693 435.39 514.358 437.01 514.253C438.87 514.131 439.504 512.926 439.869 511.482C440.994 507.036 441.372 502.469 442.019 497.943C442.476 494.765 442.611 491.528 443.417 488.384C444.853 488.799 445.687 490.533 447.401 489.672C446.611 488.3 445.335 487.641 444.206 486.868C442.711 485.84 443.765 484.547 443.815 483.472C443.857 482.569 445.226 482.884 445.742 483.107C447.161 483.724 447.267 483.031 447.237 481.965H447.25V481.944ZM73.4635 299.022C72.8884 297.998 72.0738 297.817 71.0835 297.859C66.7927 298.053 62.611 298.88 58.4593 299.921C57.4432 300.177 56.2555 300.727 56.1422 298.88C56.1171 298.473 55.8017 298.241 55.4077 298.359C54.8406 298.523 55.2144 298.905 55.2937 299.19C55.6424 300.391 55.1011 300.891 53.9799 301.269C51.9525 301.948 49.9244 302.7 48.5645 304.539C47.8469 305.513 47.5145 304.766 47.0696 304.199C44.9791 301.52 44.1692 298.287 43.1952 295.152C41.3645 289.257 39.8913 283.258 37.91 277.406C35.3529 269.849 32.6323 262.33 31.6712 254.295C31.9357 254.266 32.2131 254.207 32.4858 254.211C38.728 254.346 43.1911 250.975 46.7257 246.411C50.8944 241.03 49.8281 235.358 46.961 229.644C43.9169 223.586 39.173 220.517 31.079 221.848C29.4505 222.116 28.0688 223.002 26.3691 223.514C26.6126 221.857 26.0625 220.467 25.9404 219.014C25.5415 214.325 24.9711 209.648 24.6435 204.954C24.3077 200.118 22.9138 195.127 27.9515 191.353C30.1389 189.715 33.3255 188.099 35.9701 189.043C39.2238 190.207 41.3225 192.738 43.1532 195.475C44.975 198.2 46.2848 201.193 47.6196 204.191C50.4243 210.488 52.7542 216.953 55.1221 223.414C55.5332 224.534 55.2266 224.942 54.043 224.824C52.9727 224.72 52.3554 225.391 52.5568 226.34C52.9977 228.413 53.4637 230.496 54.509 232.39C55.0089 233.296 55.4117 233.237 56.0032 232.448C56.2514 232.121 55.8526 231.18 56.9101 231.474C57.6155 231.671 57.7335 232.146 57.8678 232.679C58.6024 235.567 59.2658 238.472 60.0966 241.331C60.332 242.142 60.1597 242.449 59.5045 242.746C58.2578 243.317 57.9302 244.333 58.4891 245.492C59.0514 246.65 58.7537 248.683 61.0374 248.317C61.8683 248.183 61.9816 248.658 62.1539 249.375C63.0228 253.003 63.9968 256.6 64.9497 260.278C64.1894 260.483 63.3924 260.656 62.628 260.92C61.6587 261.256 60.8821 262.117 61.6458 262.918C63.2581 264.606 63.4087 267.599 66.3097 268.136C66.9649 268.258 66.969 268.913 67.0911 269.471C68.1784 274.531 69.3036 279.585 70.395 284.644C71.4273 289.43 72.4393 294.224 73.4595 299.014L73.4635 299.022ZM576.024 334.845C580.028 336.167 580.045 336.26 583.24 335.634C591.737 333.972 596.968 328.015 596.477 318.72C596.309 315.512 597.329 313.502 600.104 312.238C600.679 311.974 601.116 311.675 601.107 311.063C601.095 310.32 600.407 310.328 599.886 310.164C596.485 309.094 594.659 306.625 594.424 303.082C594.265 300.697 595.377 298.649 595.856 296.436C596.146 295.093 596.767 293.699 595.079 292.519C594.092 291.827 594.096 290.769 595.587 290.009C600.356 287.578 605.406 285.714 609.953 282.838C612.388 281.298 614.852 279.804 617.421 278.212C617.652 284.929 618.542 291.369 617.942 297.851C617.904 298.25 617.623 298.989 618.353 299.018C619.298 299.052 619.39 298.036 619.461 297.486C620.284 291.125 620.923 284.749 620.071 278.334C619.894 276.991 620.138 276.088 621.279 275.11C626.069 271.016 630.205 266.365 632.82 260.508C633.945 257.994 635.096 255.467 636.808 253.258C637.799 251.987 639.088 251.247 640.629 251.78C642.447 252.415 644.18 253.292 645.213 255.131C647.388 259.001 646.8 263.246 646.183 267.171C644.831 275.781 641.964 284.098 638.651 292.099C632.686 306.495 623.459 318.578 610.272 327.238C607.258 329.22 605.1 331.713 604.13 335.038C603.211 338.187 601.998 341.188 600.7 344.169C599.949 345.899 598.967 347.456 597.145 348.355C596.254 348.791 595.692 349.005 594.865 348.17C593.387 346.675 591.552 345.672 589.634 344.786C586.032 343.12 582.518 341.268 579.143 339.165C577.577 338.187 576.267 337.024 576.015 334.845H576.024ZM590.423 295.458C589.348 301.533 590.507 306.801 595.726 310.584C596.548 311.18 596.637 311.474 595.918 312.091C593.114 314.497 592.442 317.7 592.249 321.209C592.102 323.871 591.275 326.31 588.866 328.023C584.747 330.949 580.339 330.177 575.897 329.299C575.7 329.262 575.579 328.9 575.393 328.72C571.695 325.03 567.858 321.499 563.307 318.862C562.476 318.38 562.287 317.998 562.446 317.028C563.685 309.463 565.201 301.927 565.02 294.199C564.983 292.574 565.994 293.346 566.716 293.556C572.514 295.227 578.429 296.012 584.453 295.702C586.46 295.601 588.446 295.143 590.423 295.458ZM45.7096 115.521C45.5753 117.058 46.0243 118.166 46.3017 119.312C47.5776 124.581 49.1519 129.757 50.9697 134.862C51.2173 135.555 51.4363 135.937 50.5044 136.248C44.5131 138.229 38.863 141.176 32.6621 142.579C30.9535 142.965 29.8452 142.297 29.7401 140.585C29.4213 135.379 27.9725 130.425 26.3691 125.521C25.7851 123.742 26.2137 123.028 27.8592 122.234C33.5141 119.518 39.601 118.02 45.7055 115.521H45.7096ZM46.1335 239.455C46.1925 244.69 42.175 249.581 37.1117 251.537C33.1654 253.061 30.9827 251.839 30.4075 248.401C30.219 247.276 30.613 247.163 31.5491 247.041C33.455 246.794 35.4112 246.655 37.1876 245.815C39.9577 244.505 41.8176 242.33 42.6994 239.429C43.1064 238.099 42.3765 236.844 41.201 236.277C39.757 235.58 39.5928 237.091 39.1397 237.918C37.4854 240.95 35.3488 243.195 31.6962 243.922C29.8574 244.287 29.5217 243.707 29.3114 242.234C28.6148 237.385 28.0145 232.515 27.0697 227.717C26.7258 225.979 27.1199 225.207 28.6481 224.812C29.4546 224.602 30.2902 224.459 31.1211 224.417C40.3362 223.909 45.2104 231.663 46.1295 239.459L46.1335 239.455ZM386.339 284.74C386.054 284.065 386.351 283.649 386.759 283.208C391.885 277.599 397.312 272.305 402.93 267.171C408.539 262.045 414.47 257.276 419.797 251.843C421.309 250.299 422.816 248.745 424.592 247.477C427.67 245.282 428.174 245.232 431.213 247.41C432.295 248.187 433.286 248.414 434.676 248.099C437.317 247.503 439.777 246.327 442.472 245.912C448.568 244.975 454.705 244.858 460.78 245.584C468.929 246.554 474.223 251.558 477.665 258.762C478.639 260.802 479.642 262.826 480.633 264.858C480.125 264.732 479.949 264.447 479.777 264.161C477.585 260.504 475.537 256.73 472.816 253.443C469.756 249.745 465.616 247.751 460.885 247.087C455.407 246.319 449.898 246.319 444.445 247.222C439.193 248.086 434.055 249.497 428.895 250.807C424.358 251.961 420.05 252.961 416.393 256.654C411.822 261.277 406.473 265.147 401.847 269.791C396.788 274.87 391.897 280.135 386.347 284.74H386.339ZM471.955 484.219C471.07 481.709 471.339 479.303 471.028 476.969C470.818 475.39 471.065 473.758 470.919 472.167C470.776 470.621 471.909 470.651 472.778 470.55C474.03 470.403 473.45 471.486 473.484 472.011C473.581 473.611 473.53 475.218 473.576 476.818C473.593 477.435 473.522 478.38 474.042 478.552C476.682 479.429 475.411 481.633 476.162 483.388C474.403 482.943 472.929 482.225 471.959 484.219H471.955ZM29.4254 177.242C29.4464 177.188 29.5929 176.936 29.6349 176.667C30.3363 172.213 32.7673 168.477 34.8828 164.665C35.9199 162.801 37.3972 160.874 39.9456 160.656C40.5838 160.601 41.4276 159.661 41.8556 160.899C42.2042 161.902 41.2173 162.033 40.6842 162.268C37.5987 163.62 35.6886 166.155 33.959 168.855C32.2545 171.512 31.9235 174.669 31.0166 177.612C30.8945 178.007 31.2011 178.754 30.3404 178.531C29.8324 178.401 29.1859 178.271 29.4254 177.242ZM63.4928 305.525C64.0972 305.332 64.6303 305.466 64.9118 306.046C65.2055 306.646 64.8405 307.108 64.4125 307.503C62.7711 309.01 60.9364 310.235 58.9503 311.235C58.2538 311.587 58.0733 311.39 57.8007 310.546C57.0824 308.334 58.2958 307.301 59.9332 306.554C61.0455 306.046 62.301 305.857 63.4887 305.525H63.4928ZM25.2437 188.918C25.1135 186.886 25.0253 185.522 24.9453 184.157C24.9121 183.544 25.0254 183.179 25.6175 183.825C26.0706 184.32 26.4613 183.888 26.9103 183.8C28.292 183.527 29.6689 183.611 31.0166 184.098C31.3605 184.224 31.7295 184.337 31.7295 184.724C31.7295 185.11 31.3734 185.252 31.0207 185.378C29.0306 186.097 26.9985 186.734 25.2437 188.922V188.918ZM50.4576 158.813C52.2543 161.315 51.8894 163.372 48.5896 163.922C48.2077 163.985 47.6366 164.157 47.4894 163.687C47.389 163.372 47.6488 162.612 47.8252 162.591C49.8905 162.305 50.0465 160.597 50.4576 158.817V158.813ZM58.5224 304.434C57.4432 306.571 55.9659 306.835 54.2905 306.722C55.5372 306.05 56.7846 305.374 58.5224 304.434Z" fill="#660000"/>
<path d="M175.802 32.9097C173.136 37.1876 170.537 41.0545 168.245 45.0971C162.729 54.8284 158.665 65.1851 157.17 76.2642C156.444 81.6586 154.702 86.7592 153.92 92.0824C152.875 99.224 151.863 106.369 152.615 113.64C152.821 115.622 152.708 117.725 152.258 119.66C151.599 122.507 152.233 125.155 152.75 127.868C152.825 128.267 152.808 128.539 153.345 128.762C156.658 130.143 160.155 130.693 163.661 131.176C166.734 131.6 167.199 131.256 167.909 128.107C168.547 125.278 169.08 122.423 169.79 119.598C169.945 122.826 169.404 125.995 168.631 129.077C168.19 130.827 168.698 131.407 170.213 131.726C170.667 131.822 171.082 132.091 171.784 132.402C169.252 133.686 166.817 134.719 164.777 136.465C164.198 136.961 163.11 136.76 162.208 136.315C160.659 135.554 157.065 137.377 156.607 139.056C156.544 139.287 156.582 139.644 156.729 139.816C156.985 140.118 157.397 140.034 157.686 139.841C162.413 136.604 166.859 139.379 171.171 140.76C180.915 143.879 188.824 150.059 196.276 156.865C200.864 161.054 205.499 165.189 209.798 169.685C210.705 170.63 211.738 171.528 212.376 172.637C213.472 174.539 215.041 174.619 216.968 174.303C215.23 168.397 210.596 164.69 206.645 160.462C206.91 160.307 207.01 160.227 207.124 160.181C208.009 159.803 209.622 159.845 209.206 158.51C208.987 157.809 207.543 158.523 206.717 158.88C205.772 159.287 205.071 159.076 204.324 158.384C200.197 154.551 195.873 150.949 191.398 147.528C185.39 142.931 178.756 139.627 171.196 137.797C173.606 135.953 176.146 135.017 178.908 134.505C179.979 134.308 181.411 134.689 181.818 132.88C182.015 131.995 182.896 132.779 183.379 133.006C185.268 133.888 187.17 134.66 189.26 134.996C190.835 135.252 191.2 134.677 190.986 133.254C190.873 132.511 190.966 131.734 190.966 130.84C191.67 131.419 191.351 132.041 191.36 132.561C191.394 135.252 192.888 136.57 195.659 136.264C196.813 136.134 198.047 135.634 198.845 137.326C198.161 129.749 197.607 122.49 197.887 115.189C197.862 120.996 198.941 126.73 199.005 132.536C199.026 134.341 199.131 136.176 199.487 137.939C199.878 139.874 201.57 140.815 203.161 141.659C207.691 144.064 212.535 145.668 217.67 147.149C216.024 140.903 214.563 134.761 215.079 128.359C215.268 134.148 216.544 139.728 218.249 145.227C218.882 147.272 222.808 149.383 224.831 148.813C225.696 148.569 225.201 148.174 225.075 147.733C224.605 146.113 223.556 144.689 223.505 142.859C224.933 146.642 226.314 150.42 231.435 149.983C230.117 142.129 227.804 134.186 226.75 125.92C230.343 129.619 234.555 132.338 239.332 133.833C242.674 134.879 244.252 136.486 244.806 140.042C245.529 144.669 248.244 148.682 250.054 152.981C250.415 153.837 251.506 154.874 250.465 155.806C249.361 156.789 248.102 156.42 246.775 155.815C242.661 153.947 239.202 151.033 235.297 148.846C234.941 148.644 234.609 148.388 234.239 148.225C233.626 147.952 232.93 147.204 232.367 147.691C231.792 148.187 232.069 149.127 232.241 149.874C232.3 150.139 232.506 150.378 232.527 150.639C232.565 151.075 233.177 151.541 232.556 151.944C232.027 152.288 231.977 151.516 231.616 151.453C231.288 151.394 230.952 151.39 230.528 151.549C234.45 154.156 237.909 157.402 242.271 159.304C242.905 159.58 243.564 159.807 244.164 160.139C247.426 161.923 250.692 161.121 253.904 160.08C255.235 159.647 255.755 158.401 255.436 157.041C255.31 156.499 255.251 155.954 255.151 155.416C254.983 154.505 253.874 153.573 254.559 152.788C255.13 152.129 256.502 153.208 257.048 152.914C258.845 151.935 260.831 151.785 262.695 151.168C263.345 150.949 264.034 150.798 264.634 150.487C267.128 149.203 269.017 149.513 270.558 152.112C271.641 153.942 273.287 152.8 274.6 152.204C275.314 151.881 276.112 151.231 276.192 150.357C276.565 146.386 278.984 145.378 282.556 145.508C284.366 145.575 285.713 144.207 286.959 142.977C292.74 137.251 294.143 130.521 291.758 122.805C289.689 116.1 287.644 109.37 286.763 102.381C286.439 99.8325 286.792 97.2251 286.284 94.6728C286.184 94.1695 286.192 93.6574 286.947 93.3671C289.013 92.5694 289.638 90.5502 289.525 88.7744C289.294 85.1348 290.36 81.7678 290.982 78.3004C291.834 73.5266 291.557 68.7536 291.015 63.9676C290.658 60.7939 290.029 57.6745 289.29 54.3414C293.497 54.1942 297.103 55.7143 300.478 57.9017C306.09 61.5326 309.21 66.9066 311.129 73.1658C314.21 83.2206 315.973 93.4641 316.64 103.976C317.338 114.912 317.976 125.853 318.669 136.793C319.495 149.891 320.826 162.926 323.648 175.768C324.109 177.863 324.751 179.925 325.39 181.973C325.645 182.801 325.99 183.665 327.073 184.115C327.237 180.197 326.49 176.516 325.94 172.809C325.263 168.224 324.546 163.636 324.072 159.03C323.421 152.67 322.972 146.289 322.451 139.916C322.228 137.204 322.237 134.48 322.048 131.759C321.452 123.342 321.221 114.9 320.638 106.482C319.785 94.1858 318.711 81.9272 314.42 70.1976C311.179 61.344 306.103 54.3835 296.523 51.7972C293.925 51.0965 291.179 50.248 289.113 53.5777C287.548 48.7707 285.998 44.4425 284.021 40.2609C280.919 33.6863 276.447 28.2499 270.827 23.7705C260.709 15.7057 249.193 10.4206 236.691 7.293C226.653 4.78268 216.683 5.50844 206.83 8.43455C201.339 10.0679 195.973 11.9738 191.494 15.7688C190.566 16.5536 189.731 17.4774 189.193 18.4345C187.04 22.2464 182.85 23.976 180.344 27.4021C179.202 28.9635 178.119 31.1428 176.553 31.663C175.02 32.1711 172.909 30.9074 171.045 30.4496C158.493 27.3681 145.856 24.6815 133.107 22.6032C127.023 21.6129 120.881 20.9116 114.735 20.2733C102.645 19.0226 90.9608 20.6389 79.8275 25.1563C71.0743 28.7077 64.9372 35.0219 63.7617 44.992C62.842 52.78 63.3418 60.6053 63.2747 68.4137C63.1655 80.9328 64.7479 93.3257 66.1961 105.74C67.3844 115.932 68.547 126.117 70.0752 136.268C71.952 148.75 74.4752 161.1 77.2209 173.417C79.4836 183.564 81.5992 193.733 85.0082 203.589C88.0978 212.532 91.4397 221.373 95.1927 230.059C96.5153 233.119 97.3971 236.382 99.3492 239.156C99.6971 239.652 99.9115 240.525 100.663 240.235C101.528 239.899 101.07 239.093 100.928 238.443C98.4966 227.418 94.9281 216.734 91.1874 206.109C86.7881 193.602 84.0132 180.663 80.9528 167.8C78.8074 158.787 76.6369 149.774 75.2057 140.626C73.8037 131.667 72.3929 122.704 71.6874 113.644C71.2296 107.767 70.2224 101.932 69.7564 96.0585C69.4539 92.2506 69.2144 88.4346 68.7735 84.6437C67.7744 76.0417 67.9759 67.3848 67.4678 58.7625C67.3125 56.126 66.8974 53.5058 66.7122 50.8693C65.9905 40.5336 73.6735 31.701 82.3087 28.7579C91.6581 25.5754 101.267 24.0351 111.137 24.6733C117.863 25.1095 124.542 26.0543 131.23 26.9483C139.383 28.0403 147.435 29.6858 155.567 30.8905C160.696 31.6501 165.814 32.4607 170.932 33.3085C172.489 33.569 173.963 33.0277 175.818 32.9267L175.802 32.9097ZM255.646 78.9176C256.804 81.2645 257.493 83.4262 259.172 84.9923C260.449 86.1841 262.077 85.9365 263.555 85.7561C264.453 85.6469 264.059 84.5467 263.966 83.9593C263.249 79.4297 263.131 74.8113 262.09 70.3278C261.964 69.7906 261.754 69.2114 262.623 68.9638C263.916 74.0394 265.272 79.0892 265.68 84.333C265.793 85.7812 266.38 86.5999 267.972 86.7172C270.323 86.8936 272.661 87.234 274.999 87.5657C277.544 87.9266 278.48 88.9338 278.685 91.3648C278.794 92.6576 277.753 93.4851 277.409 94.6144C275.922 99.5347 275.188 104.614 274.063 109.61C272.346 117.263 269.42 124.039 261.809 127.742C257.506 129.836 253.203 131.868 248.249 130.907C240.243 129.354 233.56 125.613 228.912 118.712C227.972 117.314 226.956 116.768 225.432 118.229C225.474 116.185 224.676 114.471 225.029 112.632C226.557 104.703 226.985 96.6378 227.93 88.6361C228.3 85.5004 229.118 82.3389 230.575 79.5932C231.36 78.1071 232.506 76.9187 232.157 74.9375C232.913 75.9244 231.565 77.4017 233.366 77.8636C236.368 78.6361 239.315 79.6183 242.329 80.3278C243.937 80.7056 245.491 80.8148 246.511 78.7623C247.665 76.4405 249.307 74.3623 250.734 72.1755C249.638 75.3912 247.984 78.2916 246.091 81.1003C249.71 82.1964 253.182 82.9181 255.659 78.9176H255.646ZM272.048 123.451C270.025 130.84 268.039 138.212 266.708 145.739C266.872 137.926 268.622 130.483 272.048 123.451ZM206.947 16.1717C206.217 15.9621 204.995 16.7177 204.592 15.1394C204.404 14.3919 204.256 13.7835 204.953 13.3005C206.171 12.4608 207.552 11.9989 209.009 11.9989C210.18 11.9989 210.877 12.7837 211.083 13.9178C211.301 15.1183 210.726 15.6054 209.542 15.8651C208.719 16.0503 207.921 16.1466 206.943 16.1677L206.947 16.1717ZM204.584 65.2143C201.687 74.8873 199.814 84.8241 196.905 94.4923C199.177 84.6559 200.356 74.5386 204.584 65.2143ZM279.768 125.042C280.276 126.189 279.42 127.356 279.655 128.459C280.52 132.578 279.555 136.583 279.114 140.622C279.055 141.172 278.908 141.684 278.295 141.554C277.678 141.423 278.127 140.882 278.106 140.521C277.829 135.269 278.463 130.114 279.768 125.046V125.042ZM219.021 16.1805C219.483 16.5706 220.457 16.323 221.003 17.0915C221.347 17.5744 220.99 17.9475 220.659 18.1238C219.139 18.9215 217.611 19.7361 216.02 20.3655C215.491 20.5758 214.517 20.5005 214.697 19.4044C214.874 18.3382 217.712 16.1426 219.021 16.1805ZM211.33 94.7189C211.796 102.653 212.015 110.601 212.98 118.497C211.07 110.672 210.831 102.721 211.33 94.7189ZM225.759 16.1805C226.204 16.3311 226.775 16.6167 226.553 17.4184C226.028 19.3373 224.781 20.685 223.01 21.5329C222.531 21.7635 222.094 21.676 221.989 20.9577C221.825 19.8324 224.466 16.2138 225.755 16.1805H225.759ZM276.713 72.8131C275.285 67.9267 273.858 63.0397 272.43 58.1574C275.088 62.6917 276.217 67.6622 276.713 72.8131ZM192.25 49.3079C194.362 45.576 196.469 41.8393 198.581 38.1074C197.342 42.3555 194.798 45.8825 192.25 49.3079ZM232.069 20.2903C232.078 19.4797 232.649 18.5898 233.845 18.2961C234.53 18.1279 234.823 18.5688 234.668 19.3162C234.412 20.567 234.185 21.9398 232.741 22.2132C232.107 22.3346 232.099 21.3314 232.069 20.2903ZM216.498 15.1265C215.47 16.7008 213.921 17.1288 212.363 17.3513C211.779 17.4354 211.423 16.9063 212.028 16.264C213.207 15.0132 214.567 14.4882 216.498 15.1265ZM262.157 146.083C262.258 143.338 262.531 140.567 263.895 138.082C264.072 138.128 264.252 138.174 264.428 138.216C263.673 140.836 262.913 143.46 262.157 146.083ZM244.181 18.5986C246.57 20.139 248.181 22.3807 249.454 24.8999L244.181 18.5986ZM240.935 22.0239C240.281 20.8444 239.109 19.9464 239.143 18.3253C241.221 19.8243 241.334 20.0508 240.935 22.0239ZM237.111 20.2652C237.245 19.8874 236.834 19.1229 237.631 19.1901C238.32 19.2491 238.66 19.9376 238.664 20.5758C238.664 21.0879 238.547 21.8225 237.804 21.7635C236.876 21.6882 237.174 20.8654 237.111 20.2652Z" fill="#660000"/>
<path d="M150.428 245.6C151.016 246.369 151.351 247.64 152.775 246.532C153.056 246.314 153.812 246.595 154.303 246.771C160.919 249.135 167.758 249.979 174.735 249.547C177.46 249.375 180.201 248.93 182.774 247.889C183.639 247.54 184.903 247.191 183.442 245.962C183.307 245.848 183.148 245.525 183.157 245.517C184.97 244.24 183.425 241.944 184.684 240.499C185.083 240.042 184.764 239.706 184.344 239.572C183.442 239.278 182.599 238.888 181.54 239.32C179.761 240.046 177.888 240.537 176.062 241.151C174.823 241.566 174.038 241.532 173.711 239.899C172.858 235.651 171.758 231.457 170.843 227.221C169.294 220.076 167.649 212.943 166.347 205.752C165.436 200.722 164.836 195.634 164.462 190.513C163.744 180.638 163.089 170.76 163.308 160.861C163.446 154.61 164.005 148.351 167.107 142.683C167.636 141.717 167.518 141.277 166.364 141.239C166.103 141.231 165.86 141.016 165.595 140.936C163.309 140.248 161.602 140.966 160.474 143.09C160.218 143.577 160.109 144.261 159.416 144.207C158.736 144.152 158.757 143.46 158.56 142.956C157.796 141.008 156.394 140.592 154.584 141.713C153.451 142.414 152.552 143.296 151.813 144.455C150.705 146.192 150.966 147.737 152.12 149.215C153.035 150.382 154.999 150.462 157.149 149.442C155.285 149.274 153.925 148.552 153.656 146.831C153.426 145.378 153.979 144.106 155.541 143.225C155.709 144.933 156.675 145.71 158.279 145.542C159.336 145.433 159.584 145.622 159.294 146.776C158.589 149.601 158.111 152.506 158.279 155.42C158.388 157.292 157.438 157.691 155.978 157.792C154.189 157.914 152.401 158.023 150.608 158.115C149.89 158.153 149.223 158.22 148.963 159.295C151.767 158.401 154.584 159.45 157.267 158.523C157.796 158.338 158.212 158.611 158.191 159.274C158.182 159.551 158.211 159.833 158.216 160.113C158.362 168.699 158.425 177.284 158.678 185.865C158.854 191.839 159.853 197.75 160.852 203.619C162.544 213.543 164.945 223.329 167.88 232.968C168.678 235.596 169.47 238.241 170.806 240.672C171.364 241.688 171.326 242.338 169.945 242.46C164.878 242.905 159.857 242.612 154.87 241.633C154.274 241.515 154.043 241.352 154.026 240.739C153.946 238.351 152.237 237.695 150.298 237.423C147.326 237.003 144.215 239.316 143.602 242.322C143.224 244.173 145.512 247.103 147.934 247.792C148.762 248.027 149.622 248.161 149.794 246.86C149.853 246.415 150.222 246.012 150.449 245.592C149.546 245.273 149.148 246.746 148.203 246.234C146.377 245.252 145.735 243.283 146.557 241.478C147.653 239.085 148.874 241.049 150.155 241.327C148.946 242.871 148.61 244.336 150.449 245.605L150.428 245.6ZM169.995 247.569C167.301 247.334 164.609 247.095 161.914 246.873C160.789 246.78 160.651 246.075 160.722 245.135C160.81 243.963 161.608 244.513 162.099 244.559C166.801 245.026 171.49 245.39 176.15 244.165C177.086 243.917 177.145 244.652 177.09 245.323C177.031 246.075 177.455 247.141 176.024 247.07C174.001 246.969 172.036 247.72 169.991 247.565L169.995 247.569ZM157.443 246.221C155.726 245.84 154.219 245.5 152.716 245.164C151.377 244.865 151.977 243.623 151.616 242.851C151.503 242.612 151.599 242.007 152.049 242.108C153.631 242.468 155.281 242.746 156.717 243.442C157.472 243.812 157.137 245.118 157.443 246.217V246.221ZM178.518 246.532C178.669 245.789 178.686 245.072 178.618 244.336C178.472 242.8 180.029 243.468 180.696 242.934C180.94 242.737 181.549 242.078 182.107 242.83C183.09 244.14 182.451 245.92 180.835 246.217C180.109 246.352 179.366 246.419 178.518 246.532Z" fill="#660000"/>
<path d="M399.794 398.615C392.711 398.271 383.896 398.607 375.143 399.191C361.7 400.085 348.253 400.135 334.806 400.488C327.754 400.673 320.709 400.723 313.656 400.735C311.142 400.74 310.264 401.554 309.564 403.981C309.152 405.4 309.718 405.58 310.932 405.79C323.207 407.914 335.55 406.374 347.859 406.537C361.956 406.726 375.995 405.093 390.1 405.189C400.264 405.261 410.436 404.757 420.6 404.43C422.745 404.359 424.874 403.918 427.018 403.682C428.178 403.557 428.874 402.868 428.908 401.814C428.937 400.782 428.001 400.194 427.132 400.001C425.243 399.581 423.324 399.254 421.397 399.073C414.786 398.447 408.148 398.645 399.794 398.62V398.615Z" fill="#660000"/>
<path d="M515.944 110.911C508.828 113.636 503.106 118.094 497.959 123.358C495.377 126.004 493.32 129.051 491.619 132.33C491.275 132.993 491.191 133.783 490.919 134.488C490.494 135.592 491.376 136.004 491.985 136.491C492.871 137.196 493.177 136.276 493.576 135.781C499.764 128.069 507.467 121.986 515.23 115.395C504.659 135.869 491.527 154.521 482.678 175.898C484.193 175.718 484.592 175.033 485.045 174.354C492.669 162.884 500.339 151.453 507.124 139.442C510.268 133.875 513.744 128.485 516.8 122.863C518.719 119.337 520.541 115.747 520.973 111.638C521.103 110.411 521.246 109.362 519.529 110.16C518.832 110.483 518.652 109.945 518.336 109.681C516.729 108.325 514.873 107.385 513.009 106.461C509.722 104.832 506.603 105.29 503.576 107.213C499.072 110.076 495.914 114.261 492.623 118.317C491.225 120.042 489.865 121.801 488.497 123.552C488.19 123.946 487.493 124.253 488.169 124.908C488.66 125.382 489.122 125.323 489.672 124.98C492.283 123.35 494.516 121.239 496.876 119.295C500.428 116.369 503.992 113.472 507.825 110.907C510.444 109.152 513.03 108.842 515.939 110.907L515.944 110.911Z" fill="#660000"/>
<path d="M262.674 444.076C264.114 433.052 264.302 422.01 264.349 410.957C264.399 398.526 264.55 386.095 264.84 373.669C265.151 360.23 265.487 346.788 266.15 333.367C266.986 316.428 268.081 299.5 267.749 282.527C267.682 279.198 267.321 275.886 266.473 272.649C266.351 272.187 266.217 271.646 265.898 271.335C265.234 270.68 264.618 269.505 263.581 269.878C262.695 270.197 263.19 271.356 263.19 272.124C263.156 280.722 263.45 289.337 263.098 297.922C262.472 313.115 262.342 328.317 262.09 343.513C261.817 360.059 262.17 376.612 261.834 393.157C261.565 406.469 261.683 419.769 261.943 433.073C262.014 436.746 262.421 440.411 262.678 444.08L262.674 444.076Z" fill="#660000"/>
<path d="M398.79 78.1225C404.726 79.1507 410.31 80.6619 415.733 82.7572C427.842 87.4339 438.697 94.2934 449.122 101.909C459.076 109.184 468.572 117.022 477.853 125.133C480.788 127.698 483.803 130.179 486.72 132.761C487.589 133.529 488.378 133.773 489.306 133.051C490.368 132.224 489.579 131.372 489.16 130.674C487.866 128.525 486.25 126.615 484.508 124.801C470.923 110.645 455.234 99.1675 438.53 89.0625C429.26 83.4538 419.407 78.9873 408.584 77.2156C404.709 76.5814 400.801 75.7464 396.801 76.5102C395.34 76.7917 395.024 77.3791 395.427 78.7438C395.801 80.0244 396.128 81.3212 396.885 82.4167C397.317 83.0468 398.005 83.5718 398.866 83.1852C399.664 82.8284 399.252 82.1399 399.198 81.5437C399.105 80.4605 399.281 79.3562 398.786 78.1225H398.79Z" fill="#660000"/>
<path d="M322.64 199.949C322.812 200.584 322.472 201.297 323.131 201.562C323.618 201.755 324.042 201.356 324.445 201.075C328.467 198.262 331.271 194.32 334.042 190.411C342.985 177.804 350.809 164.471 359.181 151.495C364.672 142.976 371.074 135.147 376.838 126.848C381.465 120.189 385.545 113.174 389.613 106.167C389.89 105.689 390.252 105.159 390.256 104.647C390.264 103.707 390.319 102.511 389.491 101.978C388.513 101.343 387.859 102.376 387.266 103.023C383.358 107.305 380.444 112.292 377.392 117.166C371.561 126.478 364.483 134.925 358.627 144.203C351.855 154.928 345.424 165.865 338.694 176.617C334.198 183.8 329.076 190.567 324.013 197.364C323.405 198.178 322.653 198.946 322.636 199.949H322.64Z" fill="#660000"/>
<path d="M342.493 205.545C337.636 209.042 333.732 212.749 328.719 214.831C327.758 215.23 326.822 215.775 327.078 216.876C327.342 218.013 328.572 218.063 329.513 217.996C332.397 217.786 334.982 216.682 337.354 215.062C338.421 214.331 339.471 213.576 340.638 212.958C338.749 215.906 336.036 218.034 333.346 220.141C330.881 222.068 328.283 223.823 325.714 225.608C325.294 225.897 324.794 226.04 324.966 226.657C325.121 227.211 325.604 227.295 326.125 227.341C328.081 227.522 329.924 226.854 331.88 226.666C327.644 229.659 323.904 233.315 319.206 235.62C319.71 237.027 320.949 236.628 321.864 236.443C328.463 235.104 334.071 231.926 338.698 227.048C339.66 226.032 340.604 224.881 339.391 223.378C338.82 222.669 339.407 222.258 339.848 221.804C342.762 218.815 344.403 215.419 343.388 211.107C343.052 209.671 344.433 209.088 345.18 208.257C346.41 206.893 347.531 205.599 347.598 203.58C347.661 201.691 347.014 200.868 345.104 200.885C340.978 200.922 337.01 201.947 333.022 202.791C327.271 204.004 321.553 205.314 315.642 205.583C314.046 205.654 311.544 205.423 311.624 207.774C311.691 209.773 314.114 209.441 315.55 209.566C320.659 210.007 325.634 208.866 330.596 207.837C333.837 207.165 337.035 206.3 340.259 205.566C340.776 205.449 341.343 205.549 342.506 205.549L342.493 205.545Z" fill="#660000"/>
<path d="M485.6 135.39C485.575 134.408 484.995 134.182 484.558 133.887C475.91 128.052 466.838 122.989 457.426 118.464C448.291 114.068 438.92 110.319 429.361 107.028C420.503 103.98 411.523 101.331 402.266 99.7778C398.421 99.1308 394.512 99.0846 390.608 99.2908C389.798 99.3322 388.887 99.4882 388.908 100.386C388.929 101.247 389.836 101.533 390.65 101.541C400.108 101.608 409.076 104.24 418.005 106.919C429.47 110.357 440.608 114.706 451.498 119.677C459.227 123.203 466.863 126.915 474.415 130.806C477.56 132.426 480.843 133.787 484.084 135.222C484.495 135.403 485.016 135.331 485.6 135.39Z" fill="#660000"/>
<path d="M293.983 166.318C293.933 167.188 293.215 167.36 292.606 167.654C288.874 169.476 285.117 171.243 282.262 174.429C281.347 175.449 280.961 175.374 277.879 174.589C277.556 175.374 278.249 175.794 278.585 176.419C277.401 176.986 276.574 175.622 275.331 175.937C275.982 177.288 276.528 178.581 278.299 178.64C278.958 178.661 279.68 178.653 279.878 177.939C280.125 177.041 280.873 177.234 281.141 177.494C281.582 177.91 281.149 178.431 280.801 178.85C279.592 180.303 277.392 180.773 275.692 179.925C273.61 178.888 272.686 177.003 273.22 174.899C273.266 174.711 273.228 174.497 273.228 174.291C271.826 174.929 271.439 175.475 271.439 176.793C271.452 181.222 276.612 184.736 280.746 183.288C283.249 182.41 283.966 179.719 283.58 176.424C283.488 175.647 283.341 175.466 284.244 175.227C286.1 174.736 287.913 174.047 289.684 173.304C290.915 172.788 291.552 172.956 292.313 174.182C296.292 180.613 300.906 186.482 307.27 190.819C310.284 192.872 313.467 193.695 317.401 193.309C312.191 189.606 307.862 185.374 303.979 180.672C301.452 177.612 299.248 174.324 296.976 171.083C296.477 170.374 296.389 169.82 297.153 169.194C297.904 168.577 298.585 167.855 299.218 167.116C300.625 165.479 300.394 163.355 298.513 162.326C296.531 161.243 294.6 159.996 292.241 159.346C292.489 160.257 293.198 160.533 293.757 160.932C294.903 161.756 295.827 162.725 296.41 164.06C296.767 164.878 297.086 166.168 296.633 166.361C295.906 166.671 294.806 167.313 293.92 166.361L293.975 166.314L293.983 166.318Z" fill="#660000"/>
<path d="M213.904 239.324C214.026 239.82 214.316 239.891 214.589 239.887C219.756 239.837 224.925 240.101 230.097 239.685C234.526 239.329 238.933 238.955 243.333 238.295C252.473 236.923 261.49 235.097 270.39 232.565C276.885 230.718 282.98 228.165 288.702 224.564C293.064 221.814 295.991 217.822 298.261 213.502C300.574 209.097 303.996 206.683 308.43 205.03C311.457 203.9 314.307 202.309 316.847 200.265C317.17 200.004 317.825 199.69 317.498 199.123C317.233 198.665 316.667 198.741 316.184 198.938C310.819 201.146 305.453 203.346 300.092 205.558C298.069 206.394 296.788 207.901 295.835 209.883C294.698 212.246 293.329 214.505 291.947 216.742C290.13 219.685 287.687 221.96 284.744 223.858C277.124 228.774 268.673 231.503 259.987 233.611C247.238 236.704 234.219 237.678 221.154 238.329C218.761 238.447 216.205 238.22 213.908 239.329L213.904 239.324Z" fill="#660000"/>
<path d="M62.9053 118.465C61.7298 108.619 62.4013 98.2335 60.3651 88.0864C58.5514 79.0476 55.067 70.6559 50.1088 62.8936C49.6096 62.1129 49.0554 60.4626 47.7368 61.1301C46.2717 61.8694 46.1754 63.3976 46.8089 64.9298C49.0886 70.4252 51.4484 75.8908 53.5768 81.4453C55.8104 87.2636 57.0273 93.3342 57.9172 99.5093C58.8959 106.285 59.7058 113.095 61.1628 119.795C61.2971 120.421 60.886 121.642 62.1788 121.412C63.22 121.227 62.8171 120.185 62.8964 119.472C62.9215 119.266 62.8964 119.052 62.8964 118.465H62.9053Z" fill="#660000"/>
<path d="M90.5161 146.026C88.7905 149.011 89.0598 152.096 89.635 155.043C93.002 172.205 98.9464 188.569 105.185 204.841C108.304 212.982 111.029 221.261 112.46 229.896C112.615 230.845 112.481 231.84 112.615 232.81C113.027 229.115 112.258 225.505 111.847 221.861C110.163 206.974 104.013 193.381 99.58 179.292C96.9102 170.811 93.7447 162.482 92.0822 153.704C91.5952 151.134 91.0411 148.582 90.5161 146.021V146.026Z" fill="#660000"/>
<path d="M7.92942 90.6078C11.2666 87.2537 14.6715 83.9661 17.9219 80.5279C22.385 75.8091 26.8433 71.095 31.7086 66.775C36.7632 62.2828 42.8718 59.7765 49.0015 57.2492C50.2481 56.7371 51.1001 56.8131 52.3678 57.3503C55.3149 58.6051 58.3842 59.7806 61.7342 58.9917C62.112 58.9036 62.7042 59.1382 62.8045 58.6261C62.9178 58.0557 62.54 57.5429 62.0198 57.2994C60.7683 56.712 59.4796 56.2081 58.2282 55.6288C57.0317 55.0787 55.6636 54.6928 54.7316 53.8402C53.6273 52.8289 52.6201 52.854 51.3436 53.1185C39.1521 55.6627 29.8325 62.6144 21.9441 71.9347C17.093 77.6689 12.5418 83.6344 7.89552 89.5287C7.73951 89.7301 7.61063 89.9574 7.46141 90.171C7.61741 90.3182 7.77342 90.4607 7.92942 90.6078Z" fill="#660000"/>
<path d="M245.764 223.86C248.132 224.553 250.475 225.355 252.872 225.921C259.903 227.58 266.981 228.046 274.105 226.484C274.508 226.396 274.928 226.295 275.277 226.094C276.12 225.611 277.141 224.998 276.86 223.944C276.641 223.126 275.55 223.13 274.702 223.134C270.995 223.143 267.284 223.227 263.581 223.117C253.946 222.832 244.592 221.035 235.558 217.651C234.736 217.341 233.967 216.732 233.199 217.811C232.426 218.898 233.254 219.557 233.829 220.153C236.553 222.987 239.975 224.876 243.316 226.841C245.222 227.962 247.208 228.945 249.185 229.939C249.66 230.178 250.247 230.955 250.743 230.145C251.096 229.574 251.074 228.848 250.504 228.214C249.093 226.648 247.288 225.578 245.76 223.852L245.764 223.86Z" fill="#660000"/>
<path d="M319.84 370.593C319.987 365.429 319.836 360.273 319.386 355.134C319.067 351.491 318.61 347.855 318.06 344.236C317.946 343.498 318.039 342.242 316.817 342.104C315.558 341.961 313.786 343.703 313.546 345.156C313.08 347.998 313.387 350.857 313.665 353.669C314.349 360.563 315.264 367.435 316.057 374.32C316.385 377.154 316.641 379.992 316.926 382.83C317.002 383.59 317.245 384.215 318.144 384.24C319.034 384.265 319.273 383.695 319.433 382.922C320.276 378.829 319.576 374.694 319.835 370.593H319.84Z" fill="#660000"/>
<path d="M449.017 107.05C447.258 104.959 444.835 103.968 442.619 102.835C429.415 96.0718 415.822 90.2447 401.414 86.5039C398.79 85.8236 396.124 85.4126 393.437 86.2937C392.488 86.6043 391.678 87.0873 391.112 87.9358C390.73 88.5062 390.587 89.1784 390.952 89.7068C391.368 90.3077 392.132 90.2148 392.661 89.858C395.486 87.9609 398.408 88.7918 401.318 89.5101C410.402 91.7477 419.042 95.2443 427.627 98.8839C433.916 101.55 440.104 104.455 446.519 106.81C447.241 107.075 448.009 107.591 449.017 107.054V107.05Z" fill="#660000"/>
<path d="M82.427 90.6846C82.5484 83.275 82.448 76.3898 83.0232 69.5174C83.4552 64.3123 83.5394 59.0814 83.9172 53.8715C84.3241 48.313 84.8701 42.7632 85.4073 37.2129C85.5498 35.7227 85.7729 34.3037 84.4041 33.1825C83.5353 32.4689 83.0693 32.4649 82.5735 33.6023C81.3939 36.306 80.9612 39.1819 80.5671 42.0538C79.2614 51.5165 80.0632 60.9534 80.9151 70.4039C81.4611 76.4447 81.7134 82.5154 82.1123 88.569C82.1455 89.1062 82.2676 89.6394 82.427 90.6887V90.6846Z" fill="#660000"/>
<path d="M203.043 223.306C198.405 221.669 194.291 219.721 189.517 220.284C189.803 221.728 191.07 222.152 192.086 222.66C196.897 225.061 201.759 227.361 206.595 229.716C207.392 230.103 208.261 230.413 208.837 231.245C208.27 232.278 206.872 231.593 206.163 232.525C208.236 233.482 210.185 233.066 212.045 232.198C213.917 231.325 214.156 229.557 212.577 228.217C210.55 226.497 208.027 225.619 205.688 224.427C205.105 224.129 204.404 224.096 204.366 223.113C204.19 218.591 202.666 214.296 202.069 209.838C201.784 207.71 201.381 205.598 201.012 203.478C200.928 203.008 200.793 202.534 200.604 202.097C200.408 201.635 200.042 201.215 199.5 201.308C199.034 201.391 199.03 201.895 198.904 202.302C197.863 205.653 198.841 208.877 199.555 212.093C200.37 215.766 201.591 219.335 203.035 223.298L203.043 223.306Z" fill="#660000"/>
<path d="M293.929 166.364C291.414 162.981 289.047 159.459 285.457 157.049C280.831 153.942 275.621 153.501 270.314 154.06C268.257 154.278 266.167 154.119 264.114 154.661C263.039 154.945 261.993 155.181 260.986 155.748C261.704 156.675 262.661 156.331 263.505 156.36C268.354 156.508 273.215 156.571 277.892 158.078C282.094 159.434 284.781 162.59 287.136 166.105C287.841 167.154 286.633 167.108 286.322 167.225C284.395 167.973 282.506 168.778 280.646 169.685C278.417 170.768 276.565 172.255 275.147 174.396C280.793 170.193 287.691 168.997 293.98 166.323C293.984 166.323 293.929 166.369 293.929 166.369V166.364Z" fill="#660000"/>
<path d="M464.554 184.09C469.336 179.585 490.355 139.619 490.133 135.564C489.046 135.454 488.798 136.382 488.374 137.029C481.913 146.898 476.372 157.272 471.389 167.952C469.466 172.075 467.597 176.222 465.712 180.366C465.204 181.483 464.6 182.575 464.55 184.094L464.554 184.09Z" fill="#660000"/>
<path d="M200.898 196.447C200.567 194.844 200.218 193.245 199.903 191.636C199.66 190.39 199.5 189.08 200.067 187.93C200.957 186.129 200.369 184.525 199.618 182.963C197.221 177.989 194.035 173.555 190.135 169.642C189.152 168.656 187.477 167.325 186.704 168.022C185.718 168.916 187.364 170.226 188.01 171.276C190.689 175.638 193.774 179.747 196.121 184.319C197.813 187.611 198.443 191.263 199.79 194.668C200.033 195.285 200.24 195.918 200.457 196.544C200.6 196.511 200.748 196.481 200.89 196.447H200.898Z" fill="#660000"/>
<path d="M215.952 183.258C221.338 183.3 224.466 179.946 224.525 175.95C224.567 173.103 220.957 169.463 218.115 169.417C217.741 169.413 217.229 169.216 217.044 169.757C216.817 170.425 217.338 170.564 217.783 170.907C220.927 173.33 221.271 175.316 219.449 178.997C218.753 180.412 215.524 181.957 214.11 181.487C213.228 181.197 213.106 180.127 212.791 179.321C212.279 178.011 212.225 176.424 210.663 175.757C210.323 175.609 210.042 175.089 209.576 175.484C209.185 175.82 209.005 176.261 209.034 176.785C209.239 180.509 212.182 183.258 215.952 183.254V183.258Z" fill="#660000"/>
<path d="M287.926 182.539C288.048 187.963 289.857 192.367 294.378 195.478C296.49 196.93 298.497 198.551 300.084 200.612C300.365 200.977 300.751 201.561 301.255 201.233C301.801 200.885 301.423 200.201 301.2 199.831C299.907 197.686 298.602 195.478 296.641 193.912C293.135 191.108 291.628 187.585 292.048 183.164C292.17 181.868 291.717 180.784 290.877 179.781C290.415 179.231 290.092 178.685 289.24 178.853C288.459 179.009 288.446 179.634 288.202 180.2C287.85 181.019 287.997 181.847 287.922 182.535L287.926 182.539Z" fill="#660000"/>
<path d="M368.643 165.747C370.638 167.637 372.842 168.912 375.033 170.172C381.133 173.677 387.464 176.683 394.311 178.455C395.344 178.724 396.977 179.16 397.321 178.216C397.804 176.897 396.041 176.599 395.139 176.226C386.595 172.682 378.194 168.799 369.466 165.705C369.29 165.642 369.067 165.722 368.643 165.747Z" fill="#660000"/>
<path d="M101.326 427.729C98.8073 432.078 99.8824 436.536 100.538 440.965C100.818 442.867 101.196 444.756 101.549 446.645C101.713 447.515 102.216 448.371 103.064 448.38C103.871 448.384 104.366 447.628 104.655 446.729C105.134 445.243 105.214 443.61 105.126 442.229C104.807 437.178 105.063 432.078 104.03 427.082C103.867 426.297 103.564 425.655 102.54 425.621C103.984 431.121 102.515 436.733 103.602 442.212C102.343 439.206 102.066 436.003 101.583 432.859C101.461 432.053 101.994 431.15 102.225 430.29C102.494 429.282 102.528 428.346 101.318 427.733L101.326 427.729Z" fill="#660000"/>
<path d="M259.727 158.005C259.311 158.963 259.412 159.479 259.546 160.037C260.272 162.992 258.786 164.302 255.793 164.491C250.705 164.815 246.087 163.429 241.599 161.41C237.296 159.475 233.601 156.519 229.756 153.832C228.551 152.988 227.405 152.044 225.499 151.381C227.317 153.92 229.307 155.487 231.477 156.851C237.544 160.662 243.66 164.344 250.831 165.784C253.19 166.259 255.558 166.066 257.905 165.961C259.277 165.902 259.853 164.516 260.256 163.337C260.835 161.641 261.066 159.924 259.727 157.997V158.005Z" fill="#660000"/>
<path d="M252.862 258.856C252.804 259.918 253.308 260.506 254.152 260.808C255.835 261.417 257.594 261.82 259.105 262.874C259.475 263.129 260.315 263.247 260.432 262.861C261.284 260.069 263.711 261.278 265.344 261.085C268.56 260.703 271.83 260.791 275.318 259.88C270.781 258.567 266.599 259.717 262.413 259.927C261.133 259.99 260.02 260.279 258.736 259.393C257.002 258.193 254.844 258.969 252.867 258.86L252.862 258.856Z" fill="#660000"/>
<path d="M371.314 176.682C375.742 179.259 380.041 181.992 384.772 183.919C385.243 184.112 385.759 184.255 386.154 183.886C386.649 183.424 385.956 183.012 385.973 182.588C386.003 181.627 385.549 180.981 384.781 180.561C380.595 178.277 376.083 177.072 371.318 176.682H371.314Z" fill="#660000"/>
<path d="M378.19 189.965C378.341 189.155 378.173 188.659 376.909 188.449C374.756 188.093 372.669 187.316 370.549 186.745C370.037 186.606 369.34 186.367 369.122 187.077C368.92 187.736 368.383 188.55 369.286 189.15C371.128 190.376 372.896 191.749 374.856 192.744C376.628 193.642 378.144 192.337 378.186 189.969L378.19 189.965Z" fill="#660000"/>
<path d="M209.988 235.66C209.383 235.622 208.942 235.903 208.577 236.193C207.275 237.234 206.007 238.321 204.731 239.4C204.165 239.883 203.846 240.307 204.383 241.151C204.849 241.881 205.353 242.137 206.083 241.97C207.976 241.525 209.743 240.727 211.499 239.891C212.485 239.421 212.556 238.498 212.288 237.751C211.914 236.726 210.978 236.1 209.992 235.66H209.988Z" fill="#660000"/>
<path d="M117.38 447.673C116.222 447.034 115.944 445.964 115.785 444.738C115.159 439.952 115.44 435.145 115.39 430.347C115.382 429.373 115.357 428.433 114.588 427.584C113.783 428.314 113.568 429.234 113.736 430.183C114.508 434.545 113.992 438.94 114.093 443.315C114.122 444.524 114.291 445.7 114.727 446.757C115.168 447.823 115.978 448.751 117.309 447.618L117.376 447.668L117.38 447.673Z" fill="#660000"/>
<path d="M199.916 163.534C198.568 163.236 197.812 164.135 197.317 165.272C196.687 166.716 196.125 168.198 195.646 169.697C195.516 170.108 195.209 170.868 196.02 171.07C196.641 171.221 197.342 171.649 197.896 170.848C199.114 169.088 200.474 167.418 201.54 165.575C202.426 164.046 201.83 163.362 199.912 163.53L199.916 163.534Z" fill="#660000"/>
<path d="M486.334 114.283C486.263 114.648 486.46 114.732 486.662 114.787C487.069 114.892 487.304 114.593 487.556 114.363C489.357 112.717 491.158 111.071 492.955 109.417C494.185 108.283 495.419 107.15 496.628 105.991C497.191 105.454 497.774 104.753 497.27 104.001C496.649 103.069 496.04 103.955 495.541 104.304C491.897 106.848 489.21 110.316 486.536 113.788C486.414 113.947 486.376 114.17 486.33 114.283H486.334Z" fill="#660000"/>
<path d="M128.787 421.633C130.781 421.658 132.266 420.323 132.153 418.686C132.061 417.342 131.982 415.861 130.033 415.84C128.333 415.819 126.654 417.603 126.73 419.408C126.788 420.861 127.771 421.407 128.783 421.637L128.787 421.633Z" fill="#660000"/>
<path d="M148.484 157.856C147.061 154.493 148.11 150.9 147.347 147.462C146.599 144.095 146.07 140.677 145.445 137.281C143.845 139.322 145.721 152.726 148.484 157.86V157.856Z" fill="#660000"/>
<path d="M117.313 447.62C118.384 447.361 118.257 446.277 118.257 445.689C118.245 439.296 118.04 432.906 116.977 426.579C116.948 426.407 116.725 426.269 116.482 425.996C114.97 428.221 116.347 430.412 116.423 432.524C116.6 437.578 117.527 442.596 117.384 447.675L117.313 447.62Z" fill="#660000"/>
<path d="M294.743 254.264C298.794 256.926 303.249 258.865 307.913 260.334C308.589 260.549 309.353 260.301 309.441 259.705C309.534 259.079 308.731 258.735 308.161 258.55C304.537 257.362 300.898 256.221 297.262 255.066C296.422 254.797 295.583 254.533 294.743 254.264Z" fill="#660000"/>
<path d="M187.271 245.664C190.176 246.147 190.646 244.078 191.251 242.537C191.906 240.87 191.188 239.279 189.605 238.498C187.708 237.562 186.595 239.014 185.34 240.425C186.729 240.987 188.518 240.605 189.169 242.113C189.841 243.666 188.568 244.552 187.267 245.664H187.271Z" fill="#660000"/>
<path d="M395.003 119.252C393.976 121.801 393.163 123.697 392.449 125.635C392.08 126.64 391.304 127.28 390.431 127.041C389.407 126.761 389.681 125.562 389.915 124.846C391.193 120.974 392.347 117.04 394.195 113.39C394.557 112.674 394.981 111.539 396.405 112.097C397.906 112.686 396.897 113.629 396.831 114.35C396.534 117.425 397.325 120.341 397.867 123.314C398.804 120.558 399.371 117.737 400.503 115.102C400.83 114.344 401.065 113.117 402.307 113.549C403.45 113.946 402.855 115.001 402.697 115.735C401.793 119.902 401.031 124.116 399.011 127.95C398.714 128.516 398.482 129.176 397.686 129.008C396.996 128.866 397.133 128.129 396.958 127.655C396.04 125.137 395.466 122.524 395.006 119.255L395.003 119.252Z" fill="#660000"/>
<path d="M445.341 163.198C443.373 166.73 442.357 170.6 440.36 174.253C439.962 173.575 439.785 172.985 439.89 172.226C440.531 167.567 442.073 163.213 444.262 159.078C444.587 158.469 444.995 157.666 445.713 157.728C446.561 157.798 446.73 158.736 446.974 159.454C448.056 162.656 447.892 166.006 448.153 169.616C449.712 166.97 450.204 164.197 451.298 161.676C451.708 160.731 451.864 159.652 452.604 158.871C453.037 158.414 453.237 157.362 454.131 157.846C454.871 158.244 454.283 158.982 454.122 159.52C452.703 164.217 450.921 168.775 448.705 173.147C448.361 173.828 448.649 175.26 447.059 175.11C447.205 171.08 445.84 167.244 445.35 163.201L445.341 163.198Z" fill="#660000"/>
<path d="M433.087 162.331C435.159 157.889 436.283 153.69 438.527 149.978C437.041 155.989 434.243 161.526 432.316 167.932C431.05 164.036 429.908 160.634 429.678 156.466C429.052 157.875 428.583 158.848 428.184 159.847C427.777 160.866 427.487 161.928 427.05 162.935C426.613 163.941 426.44 165.893 425.293 165.499C424.001 165.052 424.977 163.227 425.283 162.236C426.202 159.263 427.447 156.384 428.644 153.505C429.075 152.469 429.652 151.485 429.574 150.334C429.512 149.387 430.16 149.335 430.76 149.266C431.521 149.18 431.577 149.712 431.673 150.328C432.273 154.1 432.751 157.885 433.084 162.328L433.087 162.331Z" fill="#660000"/>
<path d="M428.74 145.343C427.626 152.234 425.741 158.822 421.716 164.706C421.7 159.807 420.947 155.042 420.487 149.58C418.71 153.44 417.752 157.003 415.75 160.098C416.264 154.66 419.361 150.091 420.961 144.913C423.169 148.776 422.76 153.18 423.584 157.578C425.795 153.562 426.111 148.956 428.74 145.349L428.74 145.343Z" fill="#660000"/>
<path d="M389.788 146.844C387.302 149.303 385.935 149.381 384.421 147.492C383.86 146.79 383.825 146.086 383.991 145.354C385.017 140.754 386.276 136.23 388.189 131.891C388.745 130.627 389.427 130.496 390.426 131.046C392.057 131.942 394.597 133.17 393.899 134.872C392.717 137.76 393.487 140.931 391.927 143.661C391.235 144.876 390.682 146.143 389.788 146.838L389.788 146.844ZM386.535 146.081C387.628 147.22 387.61 147.208 388.404 145.936C389.474 144.212 390.056 142.325 390.261 140.33C390.322 139.755 390.762 138.858 389.569 138.772C388.662 138.707 387.835 138.587 387.539 139.871C387.203 141.343 386.668 142.773 386.126 144.182C385.807 145.016 385.861 145.642 386.538 146.079L386.535 146.081ZM388.181 137.516C389.882 137.234 391.121 136.449 392.449 135.898C393.273 135.558 393.447 134.902 392.7 134.322C391.674 133.523 391.186 131.999 389.601 131.985C389.517 131.984 389.41 132.47 389.345 132.733C388.963 134.267 388.597 135.803 388.181 137.516Z" fill="#660000"/>
<path d="M414.704 132.052C415.874 130.359 417.708 129.286 418.694 127.509C418.947 127.057 419.401 126.303 420.113 126.553C420.841 126.805 420.68 127.596 420.654 128.207C420.544 130.848 420.41 133.482 420.285 136.12C420.474 136.14 420.661 136.164 420.85 136.183C422.868 132.774 424.888 129.368 426.956 125.873C427.955 127.444 427.01 128.652 426.441 129.794C425.156 132.378 423.714 134.887 422.316 137.416C422.034 137.926 422.002 138.868 421.21 138.724C420.444 138.587 420.055 137.857 419.905 137.042C419.627 135.536 419.313 134.042 419.421 132.493C419.49 131.517 419.541 130.542 419.622 129.115C417.255 130.807 416.213 132.919 415.056 134.968C414.761 135.49 414.846 136.604 413.845 136.384C412.779 136.151 413.169 135.137 413.181 134.44C413.258 130.16 414.064 126.002 415.12 121.889L415.712 121.955C415.376 125.32 415.04 128.686 414.704 132.052Z" fill="#660000"/>
<path d="M407.238 145.125C410.479 144.168 411.12 144.752 410.399 147.747C410.011 149.358 409.593 150.973 409.021 152.528C408.468 154.029 407.778 155.546 405.723 155.369C403.943 155.216 401.783 153.458 401.725 151.715C401.593 147.563 402.731 143.744 405.499 140.54C406.545 139.333 408.044 139.331 409.372 139.695C410.159 139.907 411.026 140.621 410.942 141.906C409.278 139.833 407.824 140.056 406.358 142.329C404.491 145.224 403.862 148.417 403.74 151.785C403.704 152.734 403.925 153.556 404.822 153.796C405.867 154.073 406.176 153.121 406.544 152.363C407.145 151.115 407.769 149.879 408.413 148.652C409.189 147.174 409.991 145.718 407.244 145.131L407.238 145.125Z" fill="#660000"/>
<path d="M402.688 135.994C402.248 135.807 401.823 135.552 401.368 135.44C400.468 135.221 399.435 134.071 398.671 135.097C397.653 136.471 398.274 138.334 399.646 139.224C400.144 139.548 400.56 139.993 401.029 140.397C399.824 141.314 398.342 139.487 397.536 140.777C396.903 141.788 396.919 143.18 396.515 144.359C395.982 145.905 395.706 147.547 394.475 148.829C393.798 149.535 394.015 150.298 395.115 150.663C395.854 150.909 396.525 151.357 397.309 151.753C396.346 152.575 395.517 151.941 394.758 151.848C393.314 151.673 392.441 151.487 392.93 149.216C393.585 146.178 393.732 142.992 394.608 139.956C395.083 138.303 395.667 136.678 396.148 135.024C396.57 133.575 397.528 133.239 398.843 133.645C400.301 134.094 401.61 134.823 402.688 135.994Z" fill="#660000"/>
<path d="M413.051 158.262C412.58 158.663 412.334 159.06 411.824 158.802C411.267 158.519 410.943 158.066 411.03 157.458C411.18 156.428 411.303 155.375 411.633 154.396C412.777 150.994 413.992 147.616 415.216 144.241C415.398 143.736 415.76 143.283 416.094 142.851C416.418 142.43 416.915 142.261 417.406 142.434C417.988 142.64 418.255 143.136 418.161 143.761C418.031 144.65 417.993 145.573 417.703 146.406C416.435 150.031 415.329 153.713 413.658 157.183C413.451 157.614 413.188 158.017 413.051 158.262Z" fill="#660000"/>
<path d="M435.431 171.422C436.654 165.004 438.285 158.775 441.508 152.993C442.963 154.161 442.878 155.217 442.306 156.572C440.541 160.769 438.91 165.026 437.257 169.271C436.901 170.188 436.328 170.881 435.425 171.421L435.431 171.422Z" fill="#660000"/>
<path d="M407.443 131.533C405.191 132.61 403.497 131.611 401.822 130.911C400.928 130.534 401.225 129.522 401.415 128.839C402.435 125.153 404.143 121.734 405.672 118.25C406.24 116.963 407.672 117.313 408.797 117.354C409.946 117.395 411.151 117.368 412.078 118.247C412.14 118.31 412.055 118.698 411.953 118.745C410.899 119.203 409.854 118.739 408.914 118.442C407.107 117.869 406.806 118.463 405.998 120.16C404.559 123.188 405.868 124.602 408.128 125.892C407.693 126.552 407.429 126.083 407.204 125.996C404.232 124.873 403.217 125.546 402.957 128.719C402.895 129.473 403.345 129.742 403.791 129.965C404.877 130.5 406.011 130.931 407.434 131.536L407.443 131.533Z" fill="#660000"/>
<path d="M455.345 180.933C453.665 180.203 452.813 179.509 452.675 177.914C452.204 172.415 453.679 167.687 457.686 163.792C458.855 162.651 461.118 162.831 461.86 164.265C462.132 164.792 462.217 165.318 461.739 165.79C461.162 166.365 460.891 165.743 460.565 165.464C459.522 164.563 458.65 164.739 457.662 165.662C453.958 169.109 452.746 176.02 455.348 180.936L455.345 180.933Z" fill="#660000"/>
<path d="M456.043 179.058C457.578 177.601 458.94 175.985 460.262 174.321C461.776 172.417 461.78 171.827 459.969 170.263C459.528 169.883 458.588 169.474 459.032 168.877C459.47 168.285 460.384 168.386 461.104 168.926C462.051 169.633 462.878 170.445 462.51 171.696C461.564 174.887 459.8 177.516 456.884 179.264C456.629 179.418 456.353 179.4 456.037 179.058L456.043 179.058Z" fill="#660000"/>
<path d="M146.381 135.796C146.759 137.097 147.464 137.244 148.145 137.017C150.488 136.241 152.888 136.182 155.315 136.232C155.928 136.245 156.759 136.283 156.801 135.472C156.843 134.65 155.827 134.704 155.395 134.666C153.485 134.49 151.516 134.284 149.681 135.078C148.665 135.518 147.683 135.98 146.381 135.796Z" fill="#660000"/>
<path d="M134.018 455.091C132.309 454.226 130.327 454.734 129.479 456.132C129.055 456.837 128.98 457.614 129.475 458.294C130.264 459.377 131.457 459.155 132.552 459.054C133.631 458.953 134.626 458.508 135.05 457.454C135.302 456.833 135.323 455.951 134.375 455.763C133.023 455.498 133.992 456.497 133.846 456.888C133.61 457.509 133.253 458.026 132.595 458.147C132.041 458.252 131.671 457.803 131.461 457.366C131.142 456.699 131.117 455.993 131.75 455.46C132.397 454.915 133.119 454.587 134.018 455.091Z" fill="#660000"/>
<path d="M407.888 166.457C408.429 166.444 408.95 166.545 409.206 165.789C409.517 164.887 408.87 164.609 408.353 164.417C406.742 163.812 405.092 163.312 403.45 162.791C403.106 162.682 402.758 162.745 402.527 163.073C402.254 163.464 402.539 163.715 402.779 163.942C404.227 165.29 405.919 166.163 407.888 166.457Z" fill="#660000"/>
<path d="M55.7303 162.716C54.8526 158.975 55.1843 154.983 53.4045 151.432C53.199 151.474 52.9928 151.511 52.7873 151.553C53.5598 155.319 54.3324 159.081 55.1049 162.846C55.3152 162.804 55.5248 162.758 55.7344 162.716H55.7303Z" fill="#660000"/>
<path d="M217.842 174.061C217.779 174.103 217.476 174.212 217.476 174.326C217.476 176.122 216.188 176.375 214.844 176.546C214.298 176.614 214.139 176.899 214.239 177.386C214.344 177.894 214.597 178.31 215.159 178.364C216.356 178.478 217.115 177.739 217.988 177.05C218.925 176.316 218.576 175.451 218.626 174.603C218.652 174.187 218.384 173.99 217.838 174.061H217.842Z" fill="#660000"/>
<path d="M185.419 150.901C183.53 148.383 180.806 147.245 177.892 146.422C180.403 147.916 182.909 149.407 185.419 150.901Z" fill="#660000"/>
<path d="M55.1174 165.775C51.4818 165.321 48.7741 166.442 46.1003 167.727C48.9132 167.118 51.7213 166.509 55.1174 165.775Z" fill="#660000"/>
<path d="M44.2113 142.732C43.7745 146.335 45.2857 147.577 49.1736 146.494C46.3899 146.62 44.3497 145.835 44.2113 142.736V142.732Z" fill="#660000"/>
<path d="M320.688 201.116C321.498 200.886 321.578 200.319 321.733 199.92C321.994 199.252 322.59 198.614 322.216 197.812C322.17 197.712 321.838 197.641 321.712 197.703C320.839 198.132 320.826 199.009 320.7 199.802C320.633 200.201 320.688 200.617 320.688 201.116Z" fill="#660000"/>
<path d="M149.731 140.953C149.74 139.664 149.563 138.791 148.61 138.409C148.182 138.237 147.809 138.656 147.754 139.081C147.586 140.441 148.737 140.441 149.727 140.953H149.731Z" fill="#660000"/>
<path d="M447.241 481.943C447.737 481.28 448.169 480.558 448.74 479.965C449.391 479.294 450.327 478.841 451.141 479.441C451.825 479.944 452.225 480.759 451.78 481.804C450.877 483.912 449.596 485.885 449.109 488.647C450.377 486.33 451.431 484.42 452.468 482.497C453.194 481.15 453.618 479.747 452.4 478.479C451.565 477.606 450.465 477.783 449.516 478.291C448.093 479.055 446.906 480.045 447.249 481.943H447.241Z" fill="#660000"/>
<path d="M29.9162 128.435C30.6006 124.913 31.8635 128.045 33.0227 127.923C33.1611 126.286 33.3042 124.619 33.4846 122.482C31.9185 123.829 32.4055 125.148 32.2373 126.29C31.3304 126.634 30.9947 124.354 29.7269 125.875C28.9462 126.811 28.8703 127.411 29.9114 128.431L29.9162 128.435Z" fill="#660000"/>
<path d="M41.4145 124.232C42.5608 124.454 43.7614 124.42 43.9255 123.434C44.1602 121.977 43.5932 120.495 42.8626 119.189C42.7623 119.009 41.8683 118.816 41.9015 119.664C41.9185 120.067 41.9938 120.495 42.1491 120.865C42.6741 122.107 42.9047 123.27 41.4104 124.228L41.4145 124.232Z" fill="#660000"/>
<path d="M38.8162 122.885C37.9806 123.577 38.9335 125.253 37.7248 125.152C36.0875 125.013 36.5955 123.28 36.373 122.041C34.6353 123.019 35.6005 124.178 36.1126 125.046C36.7298 126.092 37.9812 126.176 38.8583 125.546C39.8743 124.82 39.4796 123.804 38.821 122.885H38.8162Z" fill="#660000"/>
<path d="M41.7802 134.137C43.2955 133.864 45.1303 133.671 45.4952 132.336C45.9531 130.661 44.899 128.969 43.7486 127.311C43.5011 128.65 44.1101 129.536 44.412 130.476C44.8318 131.774 44.9709 132.836 43.1863 133.138C42.7034 133.218 42.154 133.461 41.7843 134.137H41.7802Z" fill="#660000"/>
<path d="M37.8802 134.383C38.5727 133.841 38.3462 133.119 38.6731 132.615C39.2442 132.817 38.9336 134.11 39.8032 133.682C40.592 133.291 40.0338 132.519 39.698 132.086C39.228 131.486 38.5687 131.037 37.792 131.759C36.814 132.661 37.4773 133.505 37.8802 134.383Z" fill="#660000"/>
<path d="M43.1611 132.024C43.8584 130.45 43.5681 129.106 42.1742 127.633C41.5658 129.581 42.6239 130.739 43.1611 132.024Z" fill="#660000"/>
<path d="M32.7582 234.95C33.6691 234.371 34.11 236.562 34.9246 235.281C35.3696 234.589 35.6253 233.606 35.5541 232.792C35.47 231.847 35.1634 230.613 33.8204 230.735C32.5859 230.844 31.1669 231.335 31.171 232.741C31.171 233.283 30.6718 235.483 32.7623 234.946L32.7582 234.95Z" fill="#660000"/>
<path d="M265.314 97.4124C265.105 98.7514 265.751 99.7884 266.096 100.885C266.776 103.05 266.234 103.869 264.013 103.911C263.25 103.924 262.485 103.911 261.532 103.911C262.128 106.266 264.038 106.699 265.781 107.156C266.99 107.475 268.468 107.551 269.214 106.304C270.163 104.73 270.268 102.916 269.076 101.388C267.981 99.9858 267.544 97.8994 265.31 97.4043L265.314 97.4124Z" fill="#660000"/>
<path d="M246.776 95.7814C247.67 95.7943 249.609 92.7881 249.63 91.2606C249.643 90.0845 248.576 89.6653 247.812 89.6484C245.516 89.5893 243.862 90.9371 243.87 92.5534C243.879 94.4384 245.062 95.7563 246.776 95.7814Z" fill="#660000"/>
<path d="M258.173 122.786C259.227 122.786 260.067 122.823 260.902 122.777C261.851 122.723 262.518 121.979 262.593 121.245C262.682 120.409 261.737 120.023 260.973 119.927C260.079 119.813 259.142 119.784 258.256 119.914C256.355 120.199 254.466 120.598 252.585 120.988C252.115 121.085 251.59 121.337 251.725 121.954C251.842 122.491 252.388 122.391 252.778 122.366C254.672 122.252 256.49 123.088 258.177 122.786H258.173Z" fill="#660000"/>
<path d="M270.613 94.0134C270.185 95.1217 270.6 96.1798 271.095 97.2881C271.52 98.2282 272.229 98.2533 272.732 97.7541C273.757 96.7252 274.584 95.5334 274.551 93.9252C274.517 92.4642 273.169 91.9812 272.447 91.0744C272.099 90.6342 270.6 90.4829 270.613 92.0402C270.613 92.6616 270.613 93.2829 270.613 94.0134Z" fill="#660000"/>
</svg>
