<svg width="941" height="640" viewBox="0 0 941 640" fill="none" xmlns="http://www.w3.org/2000/svg">
<path fill-rule="evenodd" clip-rule="evenodd" d="M595.703 335.343C632.545 343.703 661.813 359.815 688.48 381.713C693.116 385.519 693.887 389.141 692.568 394.899C684.694 429.249 671.47 461.034 651.094 489.378C630.234 518.403 604.431 540.582 572.046 552.732C539.674 564.885 508.502 562.841 479.485 544.115C434.394 515.016 418.252 455.494 441.62 404.489C453.854 377.786 473.735 359.389 498.64 347.167C531.264 331.154 564.934 328.648 595.703 335.343ZM839.548 592.103C834.072 581.749 828.792 571.265 823.089 561.058C804.599 527.992 786.492 494.655 767.203 462.142C750.295 433.641 729.762 408.175 705.787 386.135C702.441 383.057 702.674 379.955 703.237 375.97C709.095 334.575 706.534 294.193 693.956 255.002C678.284 206.182 649.702 168.162 610.616 138.908C576.242 113.179 538.028 96.6116 496.374 88.9907C417.394 74.5367 339.705 82.2786 263.888 114.649C221.659 132.674 182.477 157.156 144.827 184.64C108.917 210.862 75.8929 240.891 44.154 272.62C42.0676 274.708 40.1257 277.03 38.492 279.517C37.9997 280.26 38.4789 282.152 39.0786 283.097C39.4483 283.676 41.1374 283.914 41.8094 283.498C43.5874 282.403 45.2279 280.984 46.7555 279.496C78.8191 248.165 111.763 218.023 147.654 191.783C188.327 162.039 230.823 136.107 276.782 117.371C314.501 101.997 353.533 94.268 393.339 91.2167C419.627 89.2008 445.815 89.5312 471.811 92.8988C535.366 101.13 591.943 125.55 637.331 173.693C678.43 217.287 698.195 271.511 698.837 334.183C698.962 346.508 697.513 358.901 696.719 371.263C696.631 372.561 696.038 373.844 695.386 376.186C692.645 374.147 690.403 372.567 688.249 370.858C659.914 348.423 628.614 332.75 593.25 326.871C551.464 319.925 511.474 326.487 475.293 352.761C439.901 378.462 421.672 414.564 424.172 459.699C426.707 505.401 448.816 538.175 487.22 556.973C520.526 573.274 554.582 570.135 588.081 553.286C625.75 534.342 653.47 503.993 673.989 465.685C684.679 445.727 692.769 424.697 697.907 402.482C698.517 399.84 699.313 397.243 700.417 393.193C703.788 396.117 706.593 398.191 709.016 400.697C726.354 418.634 741.8 438.308 755.734 459.396C776.115 490.224 793.324 523.18 810.986 555.837C817.593 568.052 824.25 580.233 830.857 592.449C832.205 594.936 833.411 597.516 835.489 601.658C825.618 600.138 817.626 597.939 809.624 595.639C802.484 593.589 795.239 591.884 787.98 590.303C785.363 589.73 781.613 588.611 780.616 592.438C779.568 596.458 783.356 596.909 786.039 597.625C801.649 601.783 817.264 605.92 832.887 610.02C834.868 610.54 836.899 610.922 838.939 611.121C844.011 611.623 845.553 610.684 846.464 605.224C848.234 594.621 849.679 583.959 851.099 573.302C852.846 560.211 854.404 547.099 856.116 534.001C856.504 531.033 856.611 528.125 853.226 527.634C849.68 527.117 849.012 530.281 848.659 533.052C847.097 545.363 845.636 557.682 844.173 570.004C843.31 577.288 842.515 584.573 841.687 591.861C840.975 591.942 840.261 592.019 839.548 592.103Z" fill="#660000" fill-opacity="0.6"/>
</svg>
